<?xml version="1.0" encoding="UTF-8" standalone="no"?>
<svg
   version="1.0"
   width="353.000000pt"
   height="404.000000pt"
   viewBox="0 0 353.000000 404.000000"
   preserveAspectRatio="xMidYMid meet"
   id="svg119"
   sodipodi:docname="logo.svg"
   inkscape:version="1.1 (c4e8f9ed74, 2021-05-24)"
   xmlns:inkscape="http://www.inkscape.org/namespaces/inkscape"
   xmlns:sodipodi="http://sodipodi.sourceforge.net/DTD/sodipodi-0.dtd"
   xmlns="http://www.w3.org/2000/svg"
   xmlns:svg="http://www.w3.org/2000/svg">
  <defs
     id="defs123" />
  <sodipodi:namedview
     id="namedview121"
     pagecolor="#ffffff"
     bordercolor="#666666"
     borderopacity="1.0"
     inkscape:pageshadow="2"
     inkscape:pageopacity="0.0"
     inkscape:pagecheckerboard="0"
     inkscape:document-units="pt"
     showgrid="false"
     inkscape:zoom="2.2314356"
     inkscape:cx="234.82641"
     inkscape:cy="269.33334"
     inkscape:window-width="2560"
     inkscape:window-height="1408"
     inkscape:window-x="0"
     inkscape:window-y="0"
     inkscape:window-maximized="1"
     inkscape:current-layer="svg119" />
  <g
     transform="translate(0.000000,404.000000) scale(0.100000,-0.100000)"
     fill="#000000"
     stroke="none"
     id="g117">
    <path
       d="M1105 4023 c-139 -19 -297 -85 -435 -181 -36 -25 -99 -66 -140 -92 -73 -45 -135 -94 -194 -155 -39 -40 -106 -144 -106 -165 0 -9 -15 -21 -37 -29 -127 -46 -174 -120 -151 -236 15 -74 45 -108 108 -122 71 -17 97 -36 105 -75 4 -18 31 -88 61 -154 30 -67 54 -126 54 -131 0 -6 19 -36 42 -69 55 -76 138 -214 138 -229 0 -6 -17 -17 -37 -24 -127 -46 -174 -120 -151 -236 15 -74 45 -108 108 -122 71 -17 97 -36 105 -75 7 -32 43 -121 91 -224 13 -28 24 -56 24 -61 0 -6 19 -37 43 -69 43 -59 130 -200 161 -262 10 -18 24 -70 32 -115 8 -45 21 -111 30 -147 11 -46 15 -118 15 -250 1 -129 5 -204 16 -248 13 -57 13 -65 -1 -87 -32 -49 -9 -83 50 -76 15 1 40 -18 84 -63 34 -35 77 -72 96 -81 19 -9 34 -20 34 -25 0 -5 -15 -39 -34 -74 -50 -93 -30 -136 64 -136 57 0 64 5 86 60 9 25 33 62 52 83 34 35 40 37 97 37 129 0 304 52 504 150 115 56 182 100 283 186 47 41 91 74 96 74 6 0 8 9 5 19 -6 24 32 111 49 111 10 0 10 2 1 8 -9 6 -9 17 2 49 8 23 19 72 25 109 6 37 13 70 15 74 5 9 -13 36 -19 29 -4 -3 -11 -32 -17 -65 -35 -204 -64 -276 -145 -363 -106 -115 -297 -222 -544 -304 -134 -44 -181 -55 -270 -59 -37 -2 -55 4 -102 35 -65 42 -68 43 -113 21 -33 -16 -34 -15 -94 25 -67 46 -124 116 -167 206 l-28 60 -1 250 c-2 220 -4 258 -22 320 -12 39 -29 97 -38 130 -27 94 -68 175 -126 247 -91 113 -209 362 -234 494 -26 134 -14 364 23 446 26 58 102 140 171 185 31 20 74 51 96 68 87 69 253 174 315 200 183 77 347 97 470 56 80 -27 128 -58 200 -130 30 -31 81 -76 113 -101 55 -43 167 -175 167 -197 0 -6 7 -16 15 -23 8 -7 15 -9 15 -5 0 11 -60 118 -77 137 -13 14 -12 24 6 83 24 76 26 108 10 154 -14 39 -87 91 -138 98 -46 6 -110 -11 -139 -37 -27 -25 -33 -25 -90 4 -72 36 -192 60 -265 52 -160 -17 -306 -71 -442 -162 -38 -26 -110 -72 -160 -104 -49 -31 -110 -75 -135 -98 -25 -23 -48 -42 -52 -42 -4 0 -30 -32 -60 -71 -52 -70 -53 -71 -67 -49 -8 12 -38 51 -66 86 -88 110 -205 360 -230 490 -26 134 -14 364 23 446 26 58 102 140 171 185 31 20 74 51 96 68 87 69 253 174 315 200 183 77 347 97 470 56 80 -27 128 -58 200 -130 30 -31 81 -76 113 -101 87 -67 189 -212 221 -312 6 -21 36 -24 36 -4 0 8 16 24 35 36 19 12 53 42 75 68 146 165 372 188 660 67 62 -26 228 -131 315 -200 22 -17 65 -48 96 -68 69 -45 145 -127 171 -185 37 -82 49 -312 23 -446 -25 -132 -143 -381 -234 -494 -58 -72 -99 -153 -126 -247 -9 -33 -26 -91 -38 -130 -18 -62 -20 -100 -22 -320 l-1 -250 -28 -60 c-43 -89 -99 -160 -166 -205 -32 -22 -64 -40 -69 -40 -6 0 -11 -4 -11 -10 0 -5 4 -10 9 -10 46 0 134 75 194 165 22 33 45 65 51 70 27 23 45 157 45 340 0 128 4 199 15 245 9 36 22 102 30 147 8 45 22 97 32 115 30 60 118 202 162 262 23 32 42 63 42 68 0 6 24 65 54 132 30 66 57 136 61 154 8 39 34 58 105 75 63 14 93 48 108 122 23 116 -24 190 -150 236 -23 8 -38 20 -38 29 0 21 -67 125 -106 165 -59 61 -121 110 -194 155 -41 26 -104 67 -140 92 -155 108 -314 169 -477 184 -81 8 -187 -13 -265 -52 -57 -29 -63 -29 -89 -5 -12 11 -41 26 -66 34 -39 13 -52 13 -90 2 -25 -8 -53 -21 -64 -31 -11 -9 -20 -15 -22 -13 -1 2 -10 14 -20 25 -17 21 -17 24 4 96 31 104 22 156 -32 199 -60 47 -115 61 -172 42 -25 -8 -54 -23 -66 -34 -26 -24 -32 -24 -84 3 -88 45 -210 65 -312 51z m585 -58 c62 -31 80 -58 80 -115 0 -50 -22 -132 -36 -137 -5 -2 -27 15 -48 37 -36 38 -38 42 -26 71 26 62 -29 112 -95 85 -31 -13 -35 -13 -54 8 -20 22 -21 23 -3 39 47 42 113 47 182 12z m-70 -76 c0 -6 -7 -8 -16 -5 -14 5 -15 4 -4 -9 8 -9 8 -15 2 -15 -15 0 -25 18 -17 30 8 14 35 13 35 -1z m357 -230 c15 -6 36 -18 46 -26 16 -16 16 -17 -4 -39 -19 -21 -23 -21 -54 -8 -44 18 -82 5 -99 -36 l-12 -30 -21 43 c-29 61 -30 60 13 84 43 25 87 29 131 12z m-32 -98 c0 -8 -7 -17 -15 -19 -13 -5 -13 -3 -1 12 12 14 12 16 -3 10 -9 -3 -16 -1 -16 6 0 6 8 10 18 8 9 -2 17 -10 17 -17z m-1720 -181 c3 -5 3 -32 -1 -59 -5 -36 -12 -52 -28 -61 -12 -6 -28 -20 -35 -31 -11 -18 -8 -25 25 -56 31 -29 38 -43 42 -85 5 -56 6 -56 -74 -22 -63 27 -100 103 -83 172 18 69 31 90 67 115 53 36 77 43 87 27z m3167 -347 c36 -25 49 -46 67 -115 17 -69 -20 -145 -83 -172 -80 -34 -79 -34 -74 22 4 42 11 56 42 85 33 31 36 38 25 56 -7 11 -23 25 -35 31 -16 9 -23 25 -28 61 -4 27 -4 54 -1 60 9 13 42 3 87 -28z m-1382 -108 c62 -31 80 -58 80 -115 0 -50 -22 -132 -36 -137 -5 -2 -27 15 -48 37 -36 38 -38 42 -26 71 26 62 -29 112 -95 85 -31 -13 -35 -13 -54 8 -20 22 -21 23 -3 39 47 42 113 47 182 12z m-70 -76 c0 -6 -7 -8 -16 -5 -14 5 -15 4 -4 -9 8 -9 8 -15 2 -15 -15 0 -25 18 -17 30 8 14 35 13 35 -1z m-1395 -509 c3 -5 3 -32 -1 -59 -5 -36 -12 -52 -28 -61 -12 -6 -28 -20 -35 -31 -11 -18 -8 -25 25 -56 31 -29 38 -43 42 -85 5 -56 6 -56 -74 -22 -63 27 -100 103 -83 172 18 69 31 90 67 115 53 36 77 43 87 27z m501 -1925 c-1 -5 -15 -11 -29 -13 -35 -4 -46 22 -21 49 l18 20 18 -23 c10 -13 16 -27 14 -33z m334 -180 c22 -14 40 -30 40 -36 0 -6 -11 -25 -24 -42 -13 -18 -33 -51 -44 -73 -32 -64 -69 -72 -95 -22 l-18 33 5 -32 c7 -40 -18 -47 -35 -10 -11 24 -7 36 49 145 38 72 57 78 122 37z"
       id="path83" />
    <path
       d="M1137 3979 c-54 -13 -97 -36 -140 -78 -47 -44 -65 -76 -77 -140 -18 -96 26 -194 122 -266 51 -39 54 -40 133 -40 71 0 90 4 136 29 127 67 175 184 134 323 -20 68 -82 131 -158 161 -61 23 -89 25 -150 11z m108 -24 c86 -15 138 -57 173 -142 43 -102 22 -205 -56 -275 -96 -86 -248 -89 -339 -5 -52 48 -67 74 -81 142 -21 101 30 201 127 251 61 31 98 43 121 39 8 -2 33 -6 55 -10z"
       id="path85" />
    <path
       d="M1305 3829 c-31 -18 -45 -40 -45 -73 0 -37 7 -49 37 -65 32 -16 68 -14 93 7 27 22 33 93 10 117 -21 20 -71 28 -95 14z m95 -74 c0 -8 -9 -15 -20 -15 -11 0 -20 7 -20 15 0 8 9 15 20 15 11 0 20 -7 20 -15z"
       id="path87" />
    <path
       d="M567 3678 c-90 -19 -173 -86 -203 -164 -23 -60 -16 -156 17 -220 30 -59 117 -122 178 -130 44 -5 155 17 201 41 38 19 97 97 112 147 8 29 8 54 -1 106 -27 149 -165 250 -304 220z m185 -53 c49 -34 98 -122 106 -190 14 -126 -89 -238 -231 -252 -77 -7 -112 4 -175 55 -61 48 -82 96 -82 182 0 84 12 111 75 169 66 60 96 72 187 69 66 -3 82 -7 120 -33z"
       id="path89" />
    <path
       d="M701 3538 c-27 -17 -31 -26 -31 -63 0 -34 5 -47 22 -59 29 -20 77 -20 106 0 19 13 23 23 20 62 -2 31 -7 46 -15 45 -7 -2 -12 2 -10 9 4 22 -59 27 -92 6z m102 -55 c9 -9 -13 -34 -24 -27 -14 8 -11 34 4 34 8 0 17 -3 20 -7z"
       id="path91" />
    <path
       d="M2240 3648 c-73 -31 -135 -95 -155 -161 -41 -139 7 -256 134 -323 46 -25 65 -29 136 -29 79 0 82 1 133 40 96 72 140 170 122 266 -12 63 -30 96 -77 141 -80 78 -199 104 -293 66z m216 -41 c103 -52 154 -149 132 -252 -14 -68 -29 -94 -81 -142 -43 -40 -106 -63 -171 -63 -49 0 -128 32 -168 68 -78 70 -99 173 -56 275 36 88 77 121 178 143 67 14 87 11 166 -29z"
       id="path93" />
    <path
       d="M2152 3510 c-28 -12 -43 -51 -35 -90 10 -52 66 -75 116 -49 29 16 37 28 37 61 0 40 -10 57 -41 73 -32 17 -44 18 -77 5z m18 -75 c0 -8 -9 -15 -20 -15 -11 0 -20 7 -20 15 0 8 9 15 20 15 11 0 20 -7 20 -15z"
       id="path95" />
    <path
       d="M964 3420 c-51 -22 -86 -65 -82 -100 1 -15 -7 -38 -20 -54 -61 -78 11 -176 104 -143 19 7 23 2 33 -40 15 -57 36 -83 67 -83 21 0 43 8 141 53 36 16 38 44 5 108 l-29 60 26 14 c43 22 56 55 38 98 -18 43 -48 60 -105 62 -28 1 -50 9 -65 23 -28 26 -58 27 -113 2z m240 -71 c15 -12 26 -30 26 -44 0 -31 -44 -65 -85 -65 -51 0 -117 -28 -155 -65 -49 -47 -84 -54 -105 -21 -22 33 -22 69 -2 100 12 18 28 25 71 30 45 6 63 15 98 46 35 32 51 39 84 40 27 0 50 -7 68 -21z m-37 -151 c30 -34 55 -86 51 -111 -4 -29 -56 -37 -75 -11 -12 16 -13 15 -13 -14 0 -36 -28 -57 -64 -48 -24 6 -51 54 -61 109 -6 29 -3 37 20 56 15 11 31 21 36 21 4 0 17 -20 27 -44 11 -24 26 -47 33 -52 7 -4 3 9 -9 30 -34 58 -28 79 24 85 6 0 20 -9 31 -21z"
       id="path97" />
    <path
       d="M2869 3362 c-45 -5 -131 -64 -166 -113 -46 -65 -64 -168 -39 -232 9 -25 36 -66 59 -90 49 -53 125 -80 222 -81 54 -1 66 3 120 39 43 29 66 53 84 89 33 64 40 160 17 220 -41 107 -175 183 -297 168z m136 -36 c41 -18 121 -90 141 -127 22 -43 18 -161 -6 -209 -22 -43 -87 -100 -138 -120 -49 -19 -154 -7 -207 25 -79 46 -125 120 -125 202 0 18 12 62 26 98 27 67 63 107 119 131 40 18 147 17 190 0z"
       id="path99" />
    <path
       d="M2765 3230 c-16 -3 -29 -11 -27 -18 1 -7 -4 -11 -10 -9 -9 1 -14 -14 -16 -45 -3 -39 1 -49 20 -62 29 -20 77 -20 106 0 19 13 23 23 20 60 -3 38 -8 48 -33 63 -20 12 -40 16 -60 11z m-5 -73 c0 -8 -3 -17 -7 -20 -9 -9 -34 13 -27 24 8 14 34 11 34 -4z"
       id="path101" />
    <path
       d="M2453 3098 c-15 -14 -35 -22 -65 -23 -57 -2 -84 -18 -106 -63 -23 -47 -14 -73 33 -95 l32 -15 -29 -60 c-33 -65 -31 -93 5 -109 98 -45 120 -53 141 -53 31 0 52 26 67 83 10 42 14 47 33 40 93 -33 165 65 104 143 -13 16 -21 39 -20 54 4 36 -32 78 -85 101 -58 25 -84 24 -110 -3z m24 -87 c36 -32 55 -41 99 -47 43 -5 59 -12 71 -30 20 -31 20 -67 -2 -100 -21 -33 -56 -26 -105 21 -38 37 -104 65 -155 65 -41 0 -85 34 -85 65 0 34 44 65 92 65 32 0 49 -8 85 -39z m-59 -117 c28 -8 28 -32 0 -80 -12 -21 -16 -34 -9 -30 7 5 22 28 33 52 10 24 23 44 27 44 5 0 21 -10 36 -21 23 -19 26 -27 20 -56 -10 -55 -37 -103 -61 -109 -36 -9 -64 12 -64 48 0 29 -1 30 -13 14 -19 -26 -71 -18 -75 11 -4 25 21 77 51 111 23 24 22 24 55 16z"
       id="path103" />
    <path
       d="M1457 2939 c-54 -13 -97 -36 -140 -78 -47 -44 -65 -76 -77 -140 -18 -96 26 -194 122 -266 51 -39 54 -40 133 -40 71 0 90 4 136 29 127 67 175 184 134 323 -20 68 -82 131 -158 161 -61 23 -89 25 -150 11z m108 -24 c86 -15 138 -57 173 -142 43 -102 22 -205 -56 -275 -96 -86 -248 -89 -339 -5 -52 48 -67 74 -81 142 -21 101 30 201 127 251 61 31 98 43 121 39 8 -2 33 -6 55 -10z"
       id="path105" />
    <path
       d="M1625 2789 c-31 -18 -45 -40 -45 -73 0 -37 7 -49 37 -65 32 -16 68 -14 93 7 27 22 33 93 10 117 -21 20 -71 28 -95 14z m95 -74 c0 -8 -9 -15 -20 -15 -11 0 -20 7 -20 15 0 8 9 15 20 15 11 0 20 -7 20 -15z"
       id="path107" />
    <path
       d="M887 2638 c-90 -19 -173 -86 -203 -164 -23 -60 -16 -156 17 -220 30 -59 117 -122 178 -130 44 -5 155 17 201 41 38 19 97 97 112 147 8 29 8 54 -1 106 -27 149 -165 250 -304 220z m185 -53 c49 -34 98 -122 106 -190 14 -126 -89 -238 -231 -252 -77 -7 -112 4 -175 55 -61 48 -82 96 -82 182 0 84 12 111 75 169 66 60 96 72 187 69 66 -3 82 -7 120 -33z"
       id="path109" />
    <path
       d="M1021 2498 c-27 -17 -31 -26 -31 -63 0 -34 5 -47 22 -59 29 -20 77 -20 106 0 19 13 23 23 20 62 -2 31 -7 46 -15 45 -7 -2 -12 2 -10 9 4 22 -59 27 -92 6z m102 -55 c9 -9 -13 -34 -24 -27 -14 8 -11 34 4 34 8 0 17 -3 20 -7z"
       id="path111" />
    <path
       d="M1284 2380 c-51 -22 -86 -65 -82 -100 1 -15 -7 -38 -20 -54 -61 -78 11 -176 104 -143 19 7 23 2 33 -40 15 -57 36 -83 67 -83 21 0 43 8 141 53 36 16 38 44 5 108 l-29 60 26 14 c43 22 56 55 38 98 -18 43 -48 60 -105 62 -28 1 -50 9 -65 23 -28 26 -58 27 -113 2z m240 -71 c15 -12 26 -30 26 -44 0 -31 -44 -65 -85 -65 -51 0 -117 -28 -155 -65 -49 -47 -84 -54 -105 -21 -22 33 -22 69 -2 100 12 18 28 25 71 30 45 6 63 15 98 46 35 32 51 39 84 40 27 0 50 -7 68 -21z m-37 -151 c30 -34 55 -86 51 -111 -4 -29 -56 -37 -75 -11 -12 16 -13 15 -13 -14 0 -36 -28 -57 -64 -48 -24 6 -51 54 -61 109 -6 29 -3 37 20 56 15 11 31 21 36 21 4 0 17 -20 27 -44 11 -24 26 -47 33 -52 7 -4 3 9 -9 30 -34 58 -28 79 24 85 6 0 20 -9 31 -21z"
       id="path113" />
    <path
       d="M2495 716 c43 -20 75 -53 74 -79 0 -12 -3 -16 -6 -9 -10 25 -22 11 -16 -21 4 -25 0 -37 -17 -52 l-22 -20 -28 33 c-15 19 -35 32 -44 30 -11 -2 -4 -13 25 -36 44 -38 65 -36 104 6 37 40 33 77 -14 123 -24 24 -48 39 -62 39 -22 -1 -22 -2 6 -14z"
       id="path115" />
  </g>
  <path
     style="fill:none;stroke:#000000;stroke-width:0.75px;stroke-linecap:butt;stroke-linejoin:miter;stroke-opacity:1"
     d="m 247.6,304.1 c 2.17153,1.39561 4.47713,2.83335 7.09783,3.20899 1.7637,0.2528 3.445,-0.0549 4.89323,0.37549"
     id="path709" />
  <path
     style="fill:#00ffff;stroke:#000000;stroke-width:0.75px;stroke-linecap:butt;stroke-linejoin:miter;stroke-opacity:1"
     d="m 247.6,304.1 c 3.19938,2.40575 6.83457,3.45573 10.69127,4.00331 0.67724,0.0961 2.60501,0.4027 2.05209,0 -0.232,-0.16898 -0.50153,-0.27922 -0.7523,-0.41883"
     id="path711" />
  <path
     style="fill:#6699ff;stroke-width:0.448142"
     d="m 195.38991,510.47522 c -2.41269,-0.63833 -4.521,-1.69622 -8.79301,-4.41209 -8.37314,-5.32312 -9.45421,-5.51614 -15.70354,-2.80416 -4.06418,1.76366 -4.14286,1.74627 -10.21385,-2.25774 -5.49206,-3.62224 -9.04515,-6.7738 -13.11195,-11.63018 -4.5068,-5.38183 -7.76149,-10.61653 -11.63591,-18.71464 l -3.05755,-6.39068 -0.01,-23.85889 c -0.0103,-24.58153 -0.47232,-39.73001 -1.37345,-45.0258 -0.55976,-3.28974 -6.28715,-23.52565 -8.40521,-29.69718 -3.23192,-9.41709 -7.74382,-17.77965 -14.30326,-26.51035 -10.661484,-14.19056 -20.04227,-31.78936 -27.263563,-51.14774 -4.417438,-11.84199 -5.899576,-19.91979 -6.30767,-34.37741 -0.386995,-13.71016 0.904995,-28.01842 3.271311,-36.22843 2.724408,-9.45242 12.812268,-21.18697 25.486632,-29.64694 1.97183,-1.31616 7.31592,-5.15464 11.87576,-8.52995 14.92912,-11.0509 29.39211,-20.30053 39.21243,-25.07782 6.23796,-3.03458 16.52291,-6.67128 24.15265,-8.54024 8.52849,-2.08911 14.067,-2.78361 22.23004,-2.78752 10.79454,-0.005 17.75403,1.60555 27.2266,6.30137 5.55992,2.7562 10.18977,6.31833 18.40122,14.1576 3.77494,3.60384 9.21986,8.53998 12.09983,10.96921 10.85188,9.15343 22.97912,23.0945 24.69793,28.39191 0.29729,0.91622 1.14752,2.17662 1.88942,2.80088 1.42895,1.20239 1.97479,1.37566 2.36168,0.74967 0.49944,-0.80812 -6.27798,-13.32742 -9.95655,-18.39181 -0.78775,-1.08451 -1.43046,-2.39533 -1.42825,-2.91292 0.002,-0.5176 0.91328,-4.16023 2.02461,-8.09474 4.13289,-14.63203 3.40496,-20.57647 -3.26851,-26.6915 -3.54563,-3.24892 -9.8333,-6.53709 -13.67483,-7.1513 -6.03315,-0.96463 -13.90191,1.03007 -18.90206,4.79161 -2.06411,1.55279 -3.58521,2.37013 -4.41097,2.37013 -0.69322,0 -3.61833,-1.08718 -6.50024,-2.41596 -6.1833,-2.85096 -12.01215,-4.77373 -18.73336,-6.17962 -6.46396,-1.35208 -18.67708,-1.45561 -25.49485,-0.21612 -10.65897,1.93784 -20.27512,4.79414 -29.57737,8.78541 -10.00317,4.292 -13.07637,6.13902 -45.09785,27.10418 -9.31675,6.09988 -20.171488,14.60822 -24.914466,19.52887 -1.306684,1.35563 -4.439877,5.16571 -6.962652,8.46684 -2.52278,3.30113 -4.960138,6.22525 -5.416352,6.49806 -0.692541,0.41412 -0.988477,0.2811 -1.792568,-0.8057 -0.529699,-0.71593 -3.304153,-4.34588 -6.165455,-8.06656 -6.682994,-8.69017 -9.668854,-13.19803 -14.466512,-21.84057 -7.7918,-14.03622 -15.126746,-31.45301 -18.16312,-43.12825 -2.05568,-7.90434 -2.498475,-12.71678 -2.49966,-27.16708 -0.0012,-14.090794 0.364506,-18.931323 2.081978,-27.560732 1.527934,-7.677075 3.602343,-11.799247 9.510353,-18.898555 C 48.731458,58.91616 54.773628,53.51349 61.033299,49.276528 63.697264,47.473375 69.607654,43.243373 74.167499,39.87652 88.549204,29.257502 103.96472,19.441105 112.93178,15.191941 121.86583,10.95842 134.37874,7.0476362 145.198,5.1074633 c 6.43056,-1.1531653 20.48585,-1.1567301 25.76817,-0.00654 8.26933,1.8005981 16.72288,5.5905307 22.98893,10.3064957 1.84158,1.386007 6.44689,5.466467 10.23404,9.06769 3.78716,3.601223 9.20487,8.472322 12.03937,10.824664 6.92892,5.750293 10.14352,8.894267 14.53935,14.219912 7.23956,8.770914 13.05476,18.160605 16.39627,26.474763 1.54464,3.843298 2.05656,4.677442 3.14805,5.12955 1.65774,0.686661 2.55431,0.336465 3.15003,-1.230387 0.66047,-1.737173 1.49467,-2.586756 5.33979,-5.438261 1.84858,-1.370898 6.18436,-5.344833 9.63505,-8.83097 3.45069,-3.486137 7.78647,-7.394853 9.63505,-8.686036 8.96377,-6.260924 18.59083,-9.431278 30.82984,-10.152786 13.5226,-0.797177 34.22823,3.983623 49.61165,11.45502 8.7909,4.269556 24.767,14.443065 36.82043,23.447098 3.49073,2.607608 9.03649,6.599661 12.3239,8.871226 9.59655,6.631085 15.4864,11.964568 20.78195,18.818798 5.14513,6.65955 6.89565,11.40276 8.51173,23.06342 1.63649,11.80792 1.54596,31.85601 -0.18914,41.88611 -1.82144,10.52922 -6.33512,22.83762 -14.3798,39.21243 -5.71727,11.63739 -10.87841,20.37976 -16.09866,27.26919 -7.64999,10.09611 -12.53661,18.73541 -15.65967,27.68552 -1.71302,4.90922 -7.89474,26.25735 -8.54803,29.52005 -0.98448,4.91676 -1.34781,14.20018 -1.65745,42.34942 l -0.31548,28.68109 -2.78749,5.82584 c -6.26965,13.10356 -13.17481,21.99544 -21.93596,28.24727 -4.42699,3.15903 -9.68255,6.03559 -11.0272,6.03559 -1.35871,0 -11.21342,-2.91029 -13.0225,-3.8458 -1.18604,-0.61333 -1.21487,-0.59389 -1.89092,1.27538 -0.74517,2.06037 -1.42331,5.21591 -3.20085,14.89433 -3.92336,21.36203 -8.62325,31.48085 -19.87038,42.78062 -9.24007,9.2833 -20.32291,16.74567 -37.26547,25.09183 -17.73505,8.73657 -46.0194,18.51664 -58.92416,20.37464 -5.7911,0.83381 -13.07644,1.20357 -14.78853,0.75059 z m -1.78819,-235.47475 c 9.2462,-3.91678 12.44976,-5.71597 13.42685,-7.54079 0.79287,-1.48079 0.82901,-1.90816 0.35318,-4.17671 -0.29154,-1.38992 -1.84857,-5.29119 -3.46007,-8.66949 -1.6115,-3.37829 -2.93,-6.27094 -2.93,-6.42809 0,-0.15715 1.2604,-0.99255 2.80089,-1.85644 4.7681,-2.67389 6.25158,-4.7937 6.25158,-8.93316 0,-5.14381 -3.93142,-10.67674 -8.50361,-11.96763 -0.91807,-0.25921 -3.55803,-0.67153 -5.86659,-0.91629 -4.67232,-0.49535 -6.93912,-1.333 -10.06568,-3.71955 -1.16303,-0.88777 -2.86624,-1.75534 -3.7849,-1.92794 -4.19503,-0.78817 -12.65925,2.34994 -17.04394,6.31905 -2.76091,2.49923 -4.56867,5.74476 -4.56867,8.20231 0,2.56244 -1.14957,5.96692 -2.76935,8.20149 -6.05254,8.34977 -2.63878,18.26346 6.95224,20.18961 2.09034,0.41981 3.06311,0.38029 5.56133,-0.22587 1.6653,-0.40407 3.17198,-0.73415 3.34817,-0.7335 0.54073,0.002 1.22541,1.61497 2.38707,5.62364 1.34251,4.63272 2.8218,7.64225 4.5331,9.22234 1.74833,1.61427 2.1973,1.74175 5.53592,1.57184 2.24966,-0.11449 4.04446,-0.62594 7.84248,-2.23482 z M 128.3441,254.77726 c 10.17716,-1.78932 15.64687,-3.85448 19.41344,-7.32979 3.60865,-3.32961 7.49482,-8.60805 9.86893,-13.40462 l 1.91208,-3.86309 -0.0494,-6.52748 c -0.0585,-7.73618 -0.89294,-11.46635 -3.96639,-17.73104 -4.54778,-9.26985 -13.04544,-16.3681 -22.64869,-18.91889 -4.42471,-1.17528 -12.22708,-1.06176 -16.78672,0.24425 -12.86745,3.6856 -23.232665,13.51709 -26.055099,24.71349 -0.57813,2.2934 -0.684242,4.31365 -0.506074,9.63505 0.249436,7.44993 1.037113,11.03159 3.5673,16.22085 3.410172,6.99406 13.428233,15.05063 21.652043,17.41267 2.55137,0.73279 7.86672,0.55636 13.59855,-0.4514 z m 79.81785,-38.35571 c 6.43374,-1.0434 13.57341,-5.04538 19.53236,-10.94845 3.44357,-3.41127 4.39538,-4.68984 6.17183,-8.29063 2.54511,-5.15884 3.40948,-9.02168 3.40948,-15.23682 0,-11.06953 -3.48667,-19.43575 -10.97595,-26.33666 -3.96362,-3.65223 -8.65214,-6.43487 -14.00481,-8.31188 -7.26893,-2.54897 -15.89846,-2.10984 -24.12737,1.22777 -5.23185,2.12201 -8.28261,4.27593 -13.66019,9.64445 -3.88782,3.88126 -5.04817,5.36246 -6.39577,8.16423 -3.11804,6.48269 -4.20141,15.20778 -2.7431,22.09208 0.94225,4.44809 4.53682,11.45565 7.92499,15.44963 3.06712,3.61552 9.62704,9.17064 13.0093,11.01662 1.16399,0.63529 2.97897,1.32508 4.03327,1.53285 2.78884,0.54961 14.43014,0.54752 17.82596,-0.003 z m 124.2316,-36.06636 c 1.95583,-1.45424 3.44385,-4.20642 5.07633,-9.38902 2.06203,-6.54627 1.92797,-6.37432 4.44474,-5.70118 3.04865,0.81539 7.75598,0.67751 9.87684,-0.28929 4.62313,-2.10747 6.93454,-5.7951 6.94182,-11.07501 0.005,-3.37969 -0.45582,-4.60744 -3.55285,-9.47269 -1.18433,-1.86052 -1.5541,-3.00752 -1.80907,-5.61158 -0.39981,-4.08336 -1.40692,-6.25948 -4.13234,-8.92899 -5.07705,-4.97289 -14.86402,-8.37732 -19.26531,-6.70149 -0.57062,0.21726 -2.00809,1.19747 -3.19437,2.17822 -2.58524,2.13733 -4.15841,2.65277 -9.92024,3.25023 -5.11905,0.53082 -7.47666,1.47135 -9.69697,3.86844 -3.05994,3.30356 -5.2562,8.68489 -4.65734,11.4115 0.47619,2.16808 2.76924,4.36292 6.53763,6.25763 l 3.48316,1.7513 -2.67733,5.59697 c -3.41048,7.1296 -3.99134,8.81057 -3.99134,11.55046 0,1.92188 0.20077,2.42698 1.45646,3.66403 1.42373,1.40263 9.89622,5.49153 16.02107,7.73194 3.53515,1.29312 7.24734,1.25564 9.05911,-0.0915 z m 69.26477,-22.07164 c 3.62131,-1.39106 10.83841,-6.42314 13.88845,-9.68364 8.71544,-9.31684 11.23187,-27.017 5.49428,-38.64589 -3.3894,-6.86962 -11.07939,-13.601705 -19.38591,-16.971114 -5.42175,-2.199244 -10.17569,-3.03242 -16.20951,-2.840884 -4.89247,0.155308 -5.15941,0.217434 -8.90092,2.071424 -14.74975,7.308788 -22.7308,19.375244 -22.89238,34.610734 -0.0824,7.77233 1.60978,12.25693 7.42385,19.67417 6.82095,8.70178 18.78353,13.28372 33.51284,12.83618 3.3727,-0.10247 5.37502,-0.40015 7.0693,-1.05098 z M 146.91313,137.84391 c 5.03591,-1.6905 15.12306,-6.40211 16.47085,-7.69337 2.48371,-2.37955 2.02852,-5.49264 -2.05476,-14.0527 -1.60106,-3.35643 -2.91103,-6.29929 -2.91103,-6.5397 0,-0.24041 0.95791,-0.94092 2.12868,-1.55669 2.59853,-1.36671 5.32589,-3.76017 6.19096,-5.43304 0.35376,-0.6841 0.64304,-2.4134 0.64285,-3.842883 -4.5e-4,-4.76707 -3.25428,-9.803348 -7.47179,-11.565536 -0.88711,-0.370659 -3.85414,-0.950787 -6.59341,-1.289179 -5.38201,-0.664859 -7.37086,-1.307562 -9.4619,-3.057655 -2.23836,-1.873386 -4.08019,-2.595742 -6.61854,-2.595742 -6.71026,0 -15.97494,5.29564 -18.67612,10.675168 -0.53595,1.067371 -1.1416,3.44597 -1.34953,5.300086 -0.29492,2.629796 -0.69861,3.869501 -1.85026,5.682011 -2.98976,4.70541 -3.32363,5.65857 -3.32363,9.4886 0,5.42295 2.0432,8.65318 6.88211,10.8804 2.13729,0.98373 2.77651,1.07326 5.82585,0.8159 1.88383,-0.15898 4.13097,-0.33489 4.99364,-0.39091 l 1.5685,-0.10184 1.80353,5.37771 c 2.0134,6.00348 2.78279,7.61638 4.31607,9.04795 2.3434,2.18795 4.83928,2.41192 9.48793,0.85142 z M 325.6177,119.56516 c 5.32113,-2.448 13.41218,-9.66479 17.13594,-15.28436 4.11738,-6.213607 5.8367,-11.819536 5.79954,-18.909752 -0.0485,-9.248158 -2.70005,-16.053297 -8.74219,-22.436399 -5.78268,-6.109008 -10.99924,-9.38991 -18.58434,-11.688461 -3.40618,-1.032188 -4.76464,-1.197727 -9.99204,-1.217638 -7.00027,-0.02666 -9.84696,0.590373 -15.24491,3.304411 -8.81152,4.430345 -15.9038,12.507504 -18.2941,20.834538 -1.91014,6.654272 -2.30662,12.621641 -1.21699,18.31662 2.04903,10.709321 8.3445,18.634941 19.54821,24.610031 6.36653,3.39536 9.16084,3.91594 19.95583,3.71778 6.57841,-0.12076 7.42587,-0.23042 9.63505,-1.24677 z M 88.068361,115.69569 c 7.281944,-1.55072 12.626969,-3.47681 15.457269,-5.57006 3.57192,-2.64175 8.28094,-8.65801 11.07901,-14.154603 l 2.36042,-4.636849 -0.0247,-5.894488 C 116.89053,73.57147 112.93919,64.085406 104.9211,56.584876 98.783033,50.843021 91.954281,47.948155 83.734263,47.603294 73.495452,47.173737 64.311057,50.80756 56.311668,58.453086 c -8.708649,8.323417 -11.54003,18.736588 -8.762437,32.226222 0.734165,3.565543 2.529147,8.269215 4.125759,10.811372 3.522944,5.60929 11.693977,11.89945 18.980274,14.61124 2.037139,0.75818 3.18945,0.86143 7.769583,0.6962 2.957738,-0.1067 7.297316,-0.60279 9.643514,-1.10243 z M 166.70202,77.465228 c 3.40465,-0.598301 7.28678,-2.358415 12.05044,-5.463528 10.56061,-6.883748 16.00096,-16.667548 15.9496,-28.683385 C 194.65694,32.763337 191.23053,24.26356 184.35195,17.643142 175.62677,9.2454219 164.45475,5.435238 154.21803,7.3660542 144.98972,9.1066668 138.6703,12.508985 131.74502,19.465317 c -5.15662,5.17975 -7.18836,8.689023 -8.70852,15.041616 -2.88932,12.074195 0.63356,23.801471 10.00792,33.315305 3.20944,3.257195 9.51942,8.114758 11.92951,9.183604 2.85971,1.268246 15.59326,1.537467 21.72809,0.459386 z"
     id="path1198"
     transform="scale(0.75)" />
  <path
     style="fill:#6699ff;stroke-width:0.448142"
     d="m 192.70105,509.18695 c -1.47886,-0.72411 -4.58871,-2.47863 -6.91077,-3.89897 -2.32205,-1.42035 -4.88679,-2.86023 -5.69941,-3.19974 -2.26879,-0.948 -4.98815,-0.71577 -8.67656,0.74083 -1.84859,0.73006 -3.77282,1.32811 -4.27609,1.32901 -0.50326,0 -2.51989,-0.99264 -4.48142,-2.20787 -11.30106,-7.0015 -18.4812,-15.45695 -26.10725,-30.74433 l -3.58455,-7.18569 -0.22585,-31.35453 c -0.13368,-18.55952 -0.42352,-32.82641 -0.71027,-34.96145 -0.47223,-3.5161 -4.41393,-18.33135 -7.4277,-27.91766 -4.09926,-13.03909 -7.3678,-19.18442 -18.62864,-35.02449 -7.82011,-11.00016 -16.824838,-28.00254 -22.547589,-42.57349 -6.773458,-17.24619 -8.233017,-26.1008 -7.77935,-47.19446 0.561264,-26.09648 3.583661,-34.65529 16.73316,-47.38492 4.817217,-4.66341 5.549158,-5.22832 23.017799,-17.76521 26.95185,-19.3428 37.97003,-25.66816 54.00367,-31.00262 13.50983,-4.49477 24.65065,-6.29256 35.3262,-5.70055 9.33296,0.51756 14.76405,1.91494 22.9297,5.89965 6.13789,2.9952 10.05654,5.93193 19.22544,14.40797 3.96821,3.66835 9.9374,9.10744 13.26485,12.08686 11.6792,10.45761 20.77678,20.90648 23.27289,26.72967 0.4974,1.1604 1.44302,2.60902 2.10137,3.21916 1.33797,1.23999 2.85869,1.46819 2.85869,0.42897 0,-1.04543 -5.00689,-10.44119 -8.27797,-15.53414 -1.69549,-2.63983 -2.92185,-5.04062 -2.91671,-5.70992 0.005,-0.63519 0.81181,-4.17985 1.79317,-7.87702 3.84318,-14.47864 3.31637,-20.04942 -2.45008,-25.90874 -2.67141,-2.71443 -6.51142,-5.19737 -10.61991,-6.8668 -6.91997,-2.81184 -16.01957,-1.33656 -23.62892,3.83085 -1.48383,1.00766 -3.22523,1.8321 -3.86977,1.8321 -0.64453,0 -3.73097,-1.08403 -6.85875,-2.40896 -11.87802,-5.03155 -17.8777,-6.47046 -28.54211,-6.84528 -8.48691,-0.29829 -13.24411,0.13129 -21.28674,1.92222 -13.75603,3.06318 -27.06703,8.28427 -38.09207,14.94118 -9.708,5.86168 -35.73555,23.03343 -41.39883,27.31301 -9.743509,7.36287 -13.852989,11.27635 -20.289469,19.32176 -3.245341,4.05658 -6.218088,7.3756 -6.606101,7.3756 -0.816872,0 -10.475213,-12.49343 -15.243666,-19.71825 -11.485686,-17.4023 -23.108366,-44.2779 -26.153991,-60.47693 -1.152076,-6.12765 -1.123223,-35.111833 0.04196,-42.147586 1.906561,-11.512472 3.77092,-16.047987 9.574332,-23.291942 6.035727,-7.533939 8.711053,-9.78708 28.597118,-24.084288 24.564598,-17.660867 37.552087,-25.399401 50.511397,-30.09698 5.89796,-2.1379297 14.97713,-4.6665177 21.19132,-5.9018725 4.82546,-0.9592819 18.13295,-1.3597191 23.63246,-0.711127 5.2504,0.6192139 12.14007,2.8092344 17.85153,5.6744665 6.81468,3.418677 8.48052,4.698834 20.31268,15.60977 3.43771,3.170062 8.81886,7.958361 11.95811,10.640663 9.02161,7.708426 16.19009,16.014075 22.35841,25.905231 2.32418,3.726924 6.29324,11.481053 7.75909,15.158515 0.99887,2.505925 2.25874,3.703221 3.89676,3.703221 1.10205,0 1.49181,-0.306744 2.23114,-1.755963 0.52353,-1.026201 2.3432,-2.93343 4.3785,-4.589176 1.91546,-1.558261 6.70928,-5.927305 10.65293,-9.708978 3.95557,-3.793101 8.82972,-7.98386 10.87161,-9.347323 17.25844,-11.524254 41.55784,-12.086272 69.34581,-1.603896 11.23993,4.24001 25.2379,12.338442 41.25005,23.864946 3.19267,2.298278 9.7373,6.99732 14.54362,10.442317 13.47342,9.657254 19.21982,14.871762 24.30066,22.051372 3.01752,4.26399 4.19187,6.68238 5.49072,11.30735 3.62329,12.9019 4.28311,39.70035 1.33589,54.2562 -2.13495,10.54412 -6.44115,21.81112 -14.59274,38.18132 -5.66331,11.37317 -9.56763,17.96114 -15.61136,26.34187 -11.30232,15.67275 -13.89056,21.24834 -20.43282,44.01642 -4.63607,16.13423 -4.56426,15.37289 -5.14264,54.52644 l -0.43983,29.77424 -3.43355,6.77872 c -1.88846,3.7283 -4.85754,8.9099 -6.59797,11.51467 -5.49103,8.21802 -13.97982,15.85109 -22.21427,19.97495 -1.9755,0.98934 -2.82938,1.17423 -4.48142,0.97036 -1.74227,-0.21501 -9.78136,-2.61321 -12.23857,-3.65099 -1.22522,-0.51745 -1.91768,1.71855 -4.34274,14.02295 -3.26965,16.58968 -4.84455,21.9358 -8.65517,29.38052 -11.0998,21.68538 -40.35159,40.60656 -85.53429,55.32686 -14.3642,4.67977 -21.53467,6.20587 -31.08624,6.6161 -5.77365,0.24796 -5.85604,0.23765 -8.51889,-1.06617 z m 2.01664,-234.43565 c 3.08098,-1.29529 6.84991,-3.04723 8.3754,-3.8932 6.16555,-3.41916 6.15323,-5.21876 -0.12964,-18.93154 -1.50888,-3.29324 -1.62692,-3.78654 -0.99114,-4.14234 3.40354,-1.90472 6.47172,-4.43838 7.27986,-6.01162 1.95225,-3.80052 0.82116,-9.30361 -2.72026,-13.23481 -2.22628,-2.47131 -4.36339,-3.38993 -9.34944,-4.01874 -5.27559,-0.66535 -7.62745,-1.45004 -11.06321,-3.69122 -2.26072,-1.47468 -3.34149,-1.88497 -5.37885,-2.04192 -4.81667,-0.37106 -12.78862,2.89817 -16.76608,6.87563 -2.51934,2.51934 -3.63139,4.80475 -4.02325,8.26835 -0.30715,2.71486 -0.62397,3.47842 -4.36564,10.52151 -1.18136,2.22374 -1.51711,6.68667 -0.71848,9.55063 0.41887,1.50211 1.25758,2.78128 2.90739,4.43423 2.97187,2.97754 6.05565,4.00931 10.47686,3.50535 6.00772,-0.68479 5.30901,-1.13144 7.24415,4.63087 1.91395,5.6992 3.38767,8.49987 5.21263,9.9061 1.07693,0.82982 1.70324,0.93251 4.82279,0.79073 3.11533,-0.14159 4.31921,-0.47155 9.18691,-2.51801 z M 126.8195,255.20906 c 11.11812,-1.67571 17.91039,-4.4034 22.45827,-9.01894 3.03263,-3.07775 6.85385,-8.5551 9.09127,-13.03147 1.3049,-2.61068 1.39358,-3.10057 1.39358,-7.69802 0,-2.70046 -0.2177,-6.47513 -0.48378,-8.38815 -2.08645,-15.00101 -14.73007,-28.50134 -28.74861,-30.69656 -4.40405,-0.68965 -11.4379,-0.24392 -15.35774,0.97319 -11.83888,3.676 -21.176743,12.23549 -24.665744,22.60971 -1.171837,3.48435 -1.198013,3.79216 -0.97145,11.42332 0.254957,8.58748 0.667691,10.67419 3.133144,15.84055 1.964403,4.1164 4.812314,7.57329 9.04304,10.97673 8.80071,7.07981 14.3547,8.63037 25.10802,7.00964 z m 83.80816,-39.20486 c 9.09631,-2.32644 19.5271,-10.72522 23.48391,-18.90902 2.74402,-5.67541 3.30604,-8.74739 3.05855,-16.71803 -0.16452,-5.29814 -0.4205,-7.38666 -1.20841,-9.85912 -3.45219,-10.83305 -11.53216,-18.927 -23.31834,-23.35868 -3.15438,-1.18607 -3.7882,-1.26413 -10.30726,-1.26933 -5.50845,-0.004 -7.50276,0.16637 -9.63506,0.82497 -7.93886,2.45207 -12.11751,5.09342 -18.64131,11.78328 -6.91265,7.08862 -8.79436,11.50681 -9.22278,21.65481 -0.27715,6.56498 0.32363,9.83116 2.74812,14.94029 2.41869,5.09691 4.83532,8.38739 9.23463,12.57391 4.72525,4.49669 8.70995,7.32957 11.84807,8.42325 3.44237,1.19973 17.14202,1.14587 21.95988,-0.0863 z m 121.53965,-35.38716 c 2.0743,-1.26477 3.43152,-3.61021 5.32528,-9.20273 0.91809,-2.71126 1.84139,-5.15492 2.05176,-5.43034 0.26009,-0.34052 1.99413,-0.43036 5.41852,-0.28073 3.94972,0.17259 5.39848,0.0681 6.71638,-0.4846 2.79363,-1.1715 4.73301,-2.95287 5.97214,-5.48558 1.05598,-2.15832 1.15927,-2.80836 1.00772,-6.34127 -0.16138,-3.76208 -0.26377,-4.09756 -2.31181,-7.57417 -1.68463,-2.85971 -2.27894,-4.41665 -2.77875,-7.27963 -0.34968,-2.00305 -1.02719,-4.39934 -1.50557,-5.32511 -2.72527,-5.27401 -12.03164,-10.43622 -18.93131,-10.50114 -2.90924,-0.0274 -3.15394,0.0567 -5.93302,2.03986 -3.6623,2.61336 -4.01501,2.73987 -10.16107,3.64444 -6.01196,0.88484 -8.42637,1.90787 -10.51327,4.45467 -2.85615,3.48555 -4.76931,8.8829 -4.09747,11.55969 0.41117,1.63825 3.19757,4.13955 6.60748,5.9314 1.70312,0.89497 3.09657,1.72107 3.09657,1.8358 0,0.11472 -0.87863,1.96911 -1.95251,4.12087 -3.26099,6.53412 -4.32147,9.60936 -4.32147,12.53161 0,2.30438 0.15692,2.78638 1.23239,3.78542 2.2134,2.05608 8.93264,5.38528 15.797,7.82696 3.68296,1.31005 7.30697,1.37821 9.28101,0.17458 z m 69.56412,-22.14186 c 2.8607,-1.07715 10.21399,-6.09185 13.10545,-8.93748 6.41994,-6.31818 9.63306,-15.61673 9.222,-26.68781 -0.34485,-9.28788 -2.7179,-14.91896 -8.88767,-21.08984 -5.34799,-5.348939 -13.07813,-9.56807 -20.29372,-11.076364 -2.17497,-0.454635 -5.08118,-0.623325 -9.06439,-0.526136 l -5.86299,0.14306 -3.8172,1.893162 c -8.18438,4.059096 -15.22481,10.758118 -18.73349,17.825088 -2.81476,5.66931 -3.70657,9.69031 -3.72723,16.80532 -0.0203,7.00074 0.64683,9.68614 3.64978,14.69108 6.01621,10.02704 14.67402,15.60907 27.22183,17.55099 4.24129,0.65638 14.84289,0.29181 17.18763,-0.59107 z M 147.58377,137.77459 c 1.89204,-0.63219 6.29776,-2.52701 9.79048,-4.21071 8.06696,-3.88877 8.68856,-4.8023 7.04619,-10.35553 -0.39593,-1.33875 -1.80758,-4.83309 -3.13699,-7.7652 -1.32941,-2.93212 -2.41712,-5.48785 -2.41712,-5.6794 0,-0.19155 1.41758,-1.29068 3.15019,-2.44251 4.36055,-2.89889 5.36571,-4.49247 5.36013,-8.497924 -0.006,-4.597883 -1.89646,-8.199699 -5.73411,-10.927252 -1.10155,-0.782909 -3.09313,-1.329929 -7.77103,-2.134438 -6.63513,-1.141121 -7.25672,-1.361764 -11.07129,-3.929909 -2.16853,-1.459961 -2.68887,-1.614302 -5.44253,-1.614302 -5.44596,0 -11.74857,2.692702 -16.06023,6.861511 -2.5577,2.47296 -3.41631,4.239804 -4.27487,8.796759 -0.51021,2.708045 -1.21424,4.648885 -2.47846,6.832495 -2.48156,4.28627 -2.89212,5.793 -2.60673,9.5666 0.39097,5.16943 2.45224,8.16917 7.00278,10.19103 1.67757,0.74536 2.74801,0.85283 7.10537,0.71336 l 5.13026,-0.16419 1.89609,5.43467 c 2.25084,6.45149 3.15847,8.11679 5.15837,9.46452 2.0199,1.36122 4.99469,1.31682 9.3535,-0.13958 z m 178.48571,-18.23346 c 7.30305,-3.58652 16.18828,-12.67565 19.6504,-20.101354 2.20494,-4.729229 2.884,-8.06799 2.86142,-14.068728 -0.0332,-8.812425 -1.88479,-14.352571 -6.85386,-20.507094 -5.37498,-6.657283 -11.49315,-10.866995 -19.73742,-13.580696 -3.48594,-1.147441 -4.3987,-1.256285 -10.75541,-1.282596 -5.5237,-0.02285 -7.49205,0.139278 -9.61162,0.791737 -10.20585,3.141614 -19.85152,11.858254 -23.32043,21.07428 -1.62837,4.326211 -2.47117,9.206652 -2.47117,14.310075 0,14.035646 7.53745,25.070376 21.83565,31.967116 5.02733,2.42493 7.65447,2.83721 17.37678,2.72696 8.28873,-0.094 8.58133,-0.12929 11.02566,-1.3297 z M 85.371048,116.3132 c 5.59832,-0.85022 11.5643,-2.58406 15.519962,-4.51042 4.9849,-2.4276 10.66023,-9.11956 14.89922,-17.568147 1.29543,-2.581889 1.39876,-3.12881 1.3971,-7.394342 -0.004,-10.805344 -2.55313,-18.932117 -8.2024,-26.152141 -4.39955,-5.622807 -10.517492,-9.939252 -16.891752,-11.917777 -2.921052,-0.906674 -4.270426,-1.04136 -10.307266,-1.028805 -6.420544,0.01335 -7.217507,0.108861 -10.531336,1.262081 -4.643712,1.616018 -8.386316,3.723975 -12.529603,7.05708 -4.157896,3.344856 -6.924494,6.757601 -9.229148,11.38464 -2.507739,5.034772 -3.260479,9.015299 -2.966119,15.684969 0.380927,8.63113 2.773779,15.90062 6.972499,21.182472 3.322762,4.17993 10.321637,9.20489 16.175261,11.61332 3.013388,1.23983 9.091492,1.38974 15.693582,0.38707 z M 167.38103,77.516074 c 5.51721,-1.169731 12.82075,-5.57097 18.20332,-10.969638 2.94631,-2.95512 4.03553,-4.453317 5.72411,-7.873384 2.84547,-5.763272 3.54059,-9.364321 3.28073,-16.995847 -0.23629,-6.93955 -0.90472,-9.862651 -3.43295,-15.012757 -2.30932,-4.704172 -5.80195,-8.857006 -10.29863,-12.24536 -10.53237,-7.9363756 -21.35687,-9.6692595 -33.56804,-5.373874 -5.98503,2.105287 -9.55478,4.486978 -15.32539,10.224891 -4.06355,4.040527 -5.49461,5.798078 -6.62575,8.137384 -2.29018,4.736276 -3.29755,9.267432 -3.3219,14.941929 -0.0247,5.760367 0.76183,9.556148 2.97105,14.337724 1.94763,4.21539 3.6967,6.739361 7.3649,10.627849 2.99158,3.171232 10.89473,9.44146 12.57071,9.973395 3.62519,1.150591 17.44403,1.290694 22.45784,0.227688 z"
     id="path1274"
     transform="scale(0.75)" />
  <path
     style="fill:#99ccff;stroke-width:0.448142"
     d="m 192.70105,509.18977 c -1.47886,-0.72259 -4.56269,-2.45322 -6.85294,-3.84596 -7.28729,-4.4314 -8.87852,-4.70862 -14.4338,-2.51474 -1.84859,0.73006 -3.77367,1.32811 -4.27795,1.32901 -0.5043,0 -2.39985,-0.91265 -4.21235,-2.03013 -11.4883,-7.08302 -18.79453,-15.64267 -26.38086,-30.90665 l -3.56369,-7.17027 -0.2452,-31.36994 c -0.13487,-17.25347 -0.4514,-32.93394 -0.70341,-34.8455 -0.25201,-1.91156 -1.69328,-7.96148 -3.20282,-13.44426 -6.90795,-25.09024 -9.53029,-30.7661 -23.03313,-49.85334 -10.077284,-14.24497 -22.0101,-38.55993 -26.637676,-54.27839 -2.851108,-9.68434 -3.388646,-14.52102 -3.405764,-30.64451 -0.01651,-15.5527 0.358925,-20.3971 2.234562,-28.83328 1.857531,-8.35475 6.036845,-15.08354 14.392739,-23.17262 4.783257,-4.63053 5.603962,-5.2661 22.345589,-17.30473 27.10815,-19.49304 38.63537,-26.12635 54.67588,-31.4631 24.15176,-8.03539 43.19209,-7.80515 59.45877,0.71897 5.21612,2.73337 9.38516,5.92571 17.52529,13.41956 3.74876,3.45113 8.9334,8.151 11.52142,10.44416 12.3108,10.90819 23.44323,23.43584 25.53223,28.73216 1.15514,2.92868 4.94143,5.86022 4.94143,3.82592 0,-0.98959 -4.53316,-9.54251 -7.99697,-15.08824 -1.76362,-2.82365 -3.20658,-5.60143 -3.20658,-6.17285 0,-0.57142 0.79443,-4.11671 1.76541,-7.87841 3.0627,-11.86537 3.26942,-16.89343 0.88555,-21.53868 -2.03984,-3.97486 -8.33821,-9.04403 -14.30265,-11.51132 -2.04544,-0.84613 -3.26535,-1.01614 -7.17028,-0.99926 -5.88374,0.0254 -10.28977,1.35802 -15.33374,4.63765 -1.93031,1.2551 -3.97956,2.2484 -4.63861,2.2484 -0.64935,0 -3.83006,-1.12305 -7.06824,-2.49565 -6.55787,-2.77978 -14.03262,-5.15642 -19.11803,-6.07869 -2.172,-0.39391 -6.69045,-0.60191 -12.77205,-0.58796 -10.43839,0.0239 -14.66929,0.67111 -26.09507,3.99152 -14.95894,4.34716 -23.39068,8.51867 -43.36693,21.45533 -31.391526,20.32922 -38.370535,25.89451 -48.842914,38.94895 -2.916468,3.63555 -5.529614,6.6101 -5.806987,6.6101 -0.635597,0 -10.579846,-12.935 -14.787236,-19.23452 C 48.96839,174.98678 37.004895,147.45257 33.939545,131.10377 32.958698,125.8725 32.817037,96.742028 33.741119,90.30061 c 0.882858,-6.15406 2.644641,-13.027362 4.145033,-16.17115 3.329123,-6.975549 12.421065,-16.8137 21.747317,-23.532195 2.940916,-2.118593 9.481229,-6.83238 14.53403,-10.475083 22.26174,-16.0491 35.880691,-24.086667 48.623401,-28.696323 7.46182,-2.6992995 19.82696,-5.8435316 25.4144,-6.4624223 5.52246,-0.611694 15.18868,-0.6196502 19.9992,-0.016461 4.68315,0.5872179 11.81374,2.9087496 17.146,5.5822863 6.6582,3.338348 8.64327,4.858855 19.89501,15.238994 3.20615,2.957788 8.66916,7.829609 12.14003,10.826268 7.39789,6.387148 11.42997,10.631061 16.54542,17.414647 5.16173,6.84497 7.88492,11.361695 11.94418,19.810838 2.89961,6.035379 3.68535,7.319149 4.6239,7.554711 1.60914,0.40387 2.28624,0.02353 3.56538,-2.00276 0.6196,-0.981503 2.51032,-2.888652 4.20161,-4.238106 1.69129,-1.34945 6.38581,-5.613579 10.43225,-9.475841 4.04645,-3.862263 9.02279,-8.135341 11.05852,-9.495735 15.33921,-10.250483 35.73389,-11.830965 60.20225,-4.665359 17.34696,5.080092 29.83419,12.051797 58.2151,32.501887 20.23336,14.579309 23.58432,17.389214 29.18117,24.469494 7.07374,8.94864 9.17549,16.23003 10.29952,35.6822 0.55329,9.57512 0.0232,23.51774 -1.14982,30.24449 -1.78681,10.24637 -6.21647,22.20106 -14.3385,38.69652 -6.40319,13.00461 -9.88521,18.91332 -17.09028,29.00089 -7.97323,11.16303 -11.57791,17.71378 -14.70206,26.71788 -1.60333,4.62099 -7.50767,24.84852 -8.34896,28.60253 -0.9424,4.20518 -1.34883,13.90978 -1.77491,42.38119 l -0.44172,29.51623 -3.43577,6.7831 c -1.88967,3.73071 -4.85975,8.91427 -6.60018,11.51904 -5.49103,8.21802 -13.97982,15.85109 -22.21427,19.97495 -1.9755,0.98934 -2.82938,1.17423 -4.48142,0.97036 -1.74227,-0.21501 -9.78136,-2.61321 -12.23857,-3.65099 -1.22387,-0.51688 -1.89432,1.65856 -4.35296,14.12433 -3.29021,16.68202 -4.87869,22.00657 -8.8738,29.74491 -11.18902,21.67259 -41.70216,41.0351 -87.71478,55.66062 -12.51068,3.97663 -19.67598,5.43 -28.6769,5.81657 -5.77032,0.24782 -5.85758,0.23693 -8.51889,-1.06335 z M 192.954,275.47672 c 6.90977,-2.8603 11.56427,-5.25208 13.17253,-6.76886 2.59098,-2.44361 2.2135,-4.81244 -2.3884,-14.98763 -1.26407,-2.79498 -2.29831,-5.21824 -2.29831,-5.38504 0,-0.1668 1.05874,-0.93735 2.35275,-1.71235 3.48873,-2.08942 5.53483,-4.33795 6.14215,-6.74981 1.18579,-4.70924 -1.52983,-10.77999 -6.08022,-13.59229 -1.02697,-0.6347 -3.35024,-1.23641 -6.83386,-1.76989 -5.87657,-0.89996 -7.14133,-1.33696 -11.53009,-3.98395 -2.59683,-1.56622 -3.40373,-1.83274 -5.53325,-1.82761 -3.37566,0.008 -8.99605,2.02144 -12.91382,4.62597 -4.33813,2.88398 -6.18453,5.6437 -7.04308,10.52689 -0.50223,2.8565 -1.18814,4.7051 -2.96561,7.99253 -1.89535,3.50547 -2.35365,4.79201 -2.54173,7.1352 -0.43036,5.36125 1.69441,9.30365 6.32814,11.74156 2.04661,1.07677 2.72579,1.19988 6.11169,1.10783 2.09506,-0.057 4.48509,-0.1564 5.31117,-0.22099 l 1.50196,-0.11743 1.89408,5.42419 c 3.24931,9.30528 4.59489,10.67818 10.1345,10.34031 2.51162,-0.15318 4.35743,-0.61046 7.1794,-1.77863 z m -63.44097,-20.70831 c 9.37021,-1.80221 15.18449,-4.18156 18.88255,-7.72723 3.09476,-2.96722 7.17876,-8.55858 9.47475,-12.97177 1.88877,-3.63045 1.89226,-3.64625 1.87845,-8.49835 -0.0253,-8.8915 -0.91795,-13.20223 -4.04595,-19.5386 -4.32553,-8.76218 -12.07244,-15.65972 -20.91156,-18.61879 -3.08415,-1.03248 -4.20838,-1.16809 -9.75966,-1.17725 -7.38328,-0.0122 -10.49551,0.74849 -16.98103,4.15035 -6.87632,3.60685 -12.36973,8.95625 -15.669211,15.25848 -2.744475,5.24211 -3.118226,7.29821 -2.854888,15.70542 0.252066,8.04757 0.795192,10.84903 3.037027,15.66521 3.581501,7.69423 14.006242,16.29938 22.326842,18.42981 2.15999,0.55305 10.14997,0.18298 14.62268,-0.67728 z m 83.08296,-39.32359 c 5.43928,-1.95022 10.0652,-5.01054 15.07307,-9.97172 3.84135,-3.80554 4.80563,-5.06404 6.3936,-8.34447 2.82347,-5.83272 3.36347,-8.7504 3.10035,-16.75148 -0.35987,-10.943 -2.6132,-16.40825 -9.71977,-23.57445 -4.48761,-4.52525 -8.03883,-6.90605 -13.55492,-9.08743 -8.31316,-3.28751 -18.49638,-2.7357 -27.516,1.49104 -4.71031,2.20732 -7.86148,4.63101 -12.94769,9.95853 -4.27216,4.47485 -5.94169,7.25736 -7.46948,12.44899 -1.13295,3.84992 -1.57927,12.43782 -0.84392,16.23826 0.6733,3.47971 3.81424,10.25746 6.49346,14.01206 3.80552,5.33295 12.55669,12.65263 17.02978,14.2441 1.96971,0.7008 3.50339,0.79004 11.46093,0.66687 8.61434,-0.13334 9.39343,-0.21626 12.50059,-1.3303 z m 119.74706,-34.96989 c 1.91225,-1.28414 3.56793,-4.27886 5.38097,-9.73283 0.77838,-2.34155 1.60245,-4.49476 1.83126,-4.78491 0.29677,-0.37634 1.81695,-0.45366 5.3034,-0.26973 6.04283,0.31879 7.94823,-0.28013 10.88718,-3.4221 2.32584,-2.48651 2.99984,-4.43714 2.95521,-8.55266 -0.0357,-3.29504 -0.3843,-4.37123 -2.78186,-8.58916 -1.18198,-2.07941 -1.90866,-4.12253 -2.39088,-6.72213 -0.38104,-2.05411 -1.1766,-4.57187 -1.76793,-5.59503 -2.99886,-5.18887 -12.06856,-10.01548 -18.82014,-10.01548 -2.56073,0 -3.01219,0.15934 -5.73639,2.02465 -3.74641,2.56522 -4.05991,2.67689 -9.95464,3.54588 -6.25513,0.92212 -8.97177,2.19267 -11.21119,5.24337 -2.15365,2.93385 -3.74228,6.84681 -3.75563,9.25047 -0.009,1.62025 0.26672,2.21552 1.79339,3.87175 0.99221,1.07643 3.21051,2.69623 4.92956,3.59956 1.71904,0.90333 3.12553,1.70277 3.12553,1.77652 0,0.0738 -1.12303,2.49671 -2.49562,5.38434 -3.28772,6.91664 -3.77836,8.40149 -3.77836,11.43459 0,2.20745 0.16499,2.70006 1.23239,3.67953 1.55239,1.42451 4.22019,2.92494 9.07487,5.1039 8.96859,4.02545 13.22388,4.75386 16.17888,2.76947 z m 70.46046,-22.62754 c 7.35314,-3.44095 14.68561,-10.09769 17.44974,-15.84166 2.99083,-6.21504 3.6761,-9.50818 3.67203,-17.64633 -0.003,-6.6771 -0.0889,-7.41347 -1.24358,-10.70618 -1.67806,-4.78507 -3.09562,-7.07248 -6.79997,-10.97258 -3.86191,-4.065992 -7.49834,-6.700458 -12.45512,-9.023281 -5.88607,-2.758309 -10.48533,-3.676937 -17.53429,-3.502207 -6.75349,0.167408 -8.24137,0.67773 -14.90685,5.112785 -10.14663,6.751333 -15.58938,15.323263 -17.19117,27.074823 -1.04087,7.63643 0.29242,14.14712 4.08769,19.9609 7.94261,12.16685 19.07833,17.46134 35.87907,17.05874 5.72826,-0.13726 6.30464,-0.23383 9.04245,-1.51501 z M 147.58377,137.77148 c 1.89204,-0.63389 6.26898,-2.52545 9.72652,-4.20346 5.41355,-2.62731 6.40681,-3.27447 7.15338,-4.66076 0.77465,-1.43843 0.81068,-1.87806 0.33846,-4.12938 -0.29066,-1.38575 -1.78755,-5.35337 -3.32642,-8.81692 -2.71335,-6.10697 -2.77137,-6.31602 -1.91941,-6.91457 6.85068,-4.81298 7.50626,-5.60637 7.74619,-9.374499 0.23861,-3.747301 -0.80106,-6.740705 -3.31064,-9.531967 -2.43639,-2.709847 -4.01447,-3.362499 -10.94152,-4.525104 -5.87733,-0.986428 -6.21146,-1.106907 -9.79315,-3.531167 -2.04323,-1.382952 -2.82989,-1.641875 -5.43567,-1.789117 -5.13681,-0.290252 -11.09769,2.039656 -15.79367,6.173223 -2.92422,2.574002 -3.82879,4.250412 -4.8716,9.028394 -0.63301,2.900393 -1.52751,5.295797 -2.9564,7.917147 -2.46696,4.52569 -2.95116,7.80147 -1.75922,11.9016 0.92282,3.17441 2.75928,5.30204 5.90476,6.84098 2.29734,1.12399 2.74187,1.18374 7.6349,1.02628 l 5.19553,-0.16718 1.92116,5.50669 c 1.05665,3.02868 2.42676,6.27069 3.0447,7.20446 2.22228,3.35809 5.67933,3.97606 11.4421,2.04535 z m 178.43952,-18.22231 c 8.60891,-4.27896 18.52437,-15.39242 21.09773,-23.646785 2.04326,-6.553983 2.01704,-15.388403 -0.0641,-21.62238 -2.65978,-7.967028 -11.2447,-17.053802 -19.75802,-20.91299 -6.24632,-2.83154 -8.97691,-3.399936 -16.28831,-3.390575 -5.66732,0.0073 -7.21438,0.163671 -9.85913,0.996784 -5.37251,1.692386 -10.25676,4.783589 -15.05142,9.525944 -3.6918,3.651515 -4.60355,4.863183 -6.40707,8.514698 -2.92356,5.919211 -4.01997,11.358217 -3.749,18.597892 0.33692,9.001945 3.09522,15.452482 9.29845,21.745292 3.63729,3.6898 7.33769,6.30331 12.42467,8.77523 5.02727,2.4429 7.6423,2.85549 17.37678,2.7416 8.27999,-0.0969 8.58263,-0.13338 10.97947,-1.32471 z m -237.752369,-3.706 c 4.617965,-0.96679 10.220403,-2.73896 12.834619,-4.05986 4.5095,-2.27854 9.88102,-8.56491 14.108,-16.510802 l 2.1034,-3.953984 -0.265,-6.334805 C 116.75718,77.937883 115.748,72.998332 113.66438,68.403008 109.64377,59.535752 101.74894,52.167725 93.042231,49.156941 89.903866,48.07169 88.209719,47.78077 84.000424,47.604277 73.05081,47.145165 64.163685,50.583789 56.188154,58.365452 c -7.251252,7.074992 -10.177507,14.637545 -9.66923,24.988957 0.475151,9.67678 3.430963,17.384141 8.725979,22.753201 4.266388,4.32606 10.896933,8.69828 15.561531,10.26137 2.37345,0.79534 12.628708,0.48657 17.464487,-0.52581 z M 163.90229,77.96885 c 4.71815,-0.540603 7.91988,-1.663253 12.60069,-4.418291 9.64361,-5.676049 15.525,-13.2537 17.5619,-22.626962 0.92909,-4.275365 0.70332,-13.765453 -0.42786,-17.985161 -2.4971,-9.315082 -9.79567,-17.871494 -19.21811,-22.530152 -5.6081,-2.772769 -8.5599,-3.4392983 -15.10443,-3.4106487 -4.74463,0.02077 -6.20441,0.2077464 -9.54019,1.2219486 -7.60525,2.3122791 -13.56727,6.1830501 -19.639,12.7503741 -5.55241,6.00561 -8.04133,12.599283 -8.07013,21.37946 -0.0169,5.158281 0.30696,7.213181 1.83213,11.624269 2.75557,7.969717 9.39813,15.689147 18.87456,21.934453 2.10938,1.390164 3.0616,1.708672 6.04991,2.023662 5.10952,0.538577 10.58596,0.55203 15.08053,0.03706 z"
     id="path1313"
     transform="scale(0.75)" />
  <path
     style="fill:#99ccff;stroke-width:0.448142"
     d="m 188.88086,506.7992 c -10.58759,-6.03414 -11.53536,-6.24692 -17.94142,-4.02709 l -3.75516,1.30122 -2.49615,-1.26008 c -3.55845,-1.79629 -9.55191,-6.33754 -13.25286,-10.04166 -5.47422,-5.47898 -9.87251,-12.03888 -15.19967,-22.6698 l -2.99304,-5.97292 -0.38387,-32.81782 c -0.36618,-31.30544 -0.42856,-33.01106 -1.35341,-37.01064 -2.70902,-11.71526 -7.09042,-26.32611 -10.12678,-33.77018 -3.02978,-7.42795 -5.88371,-12.32481 -14.12786,-24.24105 -10.639398,-15.37836 -20.888768,-35.45938 -26.376168,-51.67735 -4.364697,-12.89982 -5.146919,-19.49109 -4.791461,-40.37445 0.247002,-14.51158 0.672091,-18.3665 2.866207,-25.99223 2.031379,-7.06013 5.98236,-12.95944 13.681842,-20.42869 4.773228,-4.6305 7.51164,-6.76346 22.31736,-17.3831 30.03513,-21.54319 42.48165,-28.29267 62.06513,-33.65661 8.42322,-2.30713 13.13984,-3.00369 22.01701,-3.25152 12.00123,-0.33505 19.22002,1.11471 28.63199,5.75018 6.12558,3.01691 9.3253,5.52316 24.07018,18.85353 18.09857,16.36232 27.06897,25.95482 31.02719,33.17891 2.34315,4.27646 5.61945,6.94556 5.61945,4.57799 0,-0.95369 -3.42089,-7.6119 -7.34279,-14.29158 -2.23194,-3.80139 -3.41151,-6.28211 -3.40941,-7.17027 0.002,-0.74689 0.70286,-4.27474 1.55797,-7.83967 2.87623,-11.99087 3.08051,-16.26743 0.99089,-20.74428 -1.9163,-4.10554 -8.27359,-9.49757 -14.20376,-12.04713 -2.10728,-0.90599 -3.17978,-1.05706 -7.39434,-1.04156 -5.96627,0.022 -9.49412,0.98468 -14.78869,4.03574 -5.46349,3.1484 -4.75121,3.20707 -16.58125,-1.36589 -9.47117,-3.66113 -14.49142,-4.73349 -23.52746,-5.02566 -13.18736,-0.42638 -21.75903,0.96661 -36.85125,5.98873 -13.05818,4.34527 -29.55381,13.80982 -56.76512,32.56964 -14.402566,9.92931 -19.17833,14.11513 -27.955881,24.50255 -3.43659,4.06689 -6.410776,7.456 -6.609302,7.53135 -0.919435,0.34899 -12.42079,-14.90783 -17.807607,-23.6222 -9.420759,-15.24019 -19.866704,-39.697 -23.062365,-53.99531 -0.961666,-4.30276 -1.012487,-5.46036 -1.015346,-23.12737 -0.0032,-19.607854 0.06551,-20.493656 2.272432,-29.309115 1.457298,-5.821113 3.820092,-10.234084 8.43569,-15.755274 C 50.374095,57.938745 54.379429,54.566996 71.478647,42.317493 103.41597,19.438297 115.83156,12.799095 136.37403,7.6148659 c 9.24804,-2.3338944 12.11087,-2.6840285 21.95102,-2.6846914 6.55061,-4.413e-4 10.05977,0.1980332 12.54798,0.7097017 6.92989,1.4250467 16.8905,5.8087288 22.15193,9.7491118 1.36925,1.025463 6.1923,5.207718 10.71788,9.293899 4.52557,4.086181 10.74912,9.649628 13.83009,12.363216 12.74479,11.225041 20.20522,20.970385 28.06772,36.664053 1.84975,3.692112 3.57581,6.96915 3.83571,7.282308 1.09662,1.321342 2.71778,0.619601 5.70991,-2.471611 3.04801,-3.148946 19.05794,-17.768642 22.21362,-20.28469 6.30405,-5.026257 14.58798,-8.518363 23.88719,-10.069702 5.72288,-0.954716 19.1444,-0.733487 25.40843,0.41881 14.30194,2.630909 26.84431,7.194944 39.41877,14.344081 9.53581,5.421528 29.81114,19.330529 45.7282,31.369818 12.43441,9.40509 19.6433,18.23988 22.5383,27.62158 3.61226,11.70612 4.33855,40.24955 1.3962,54.87126 -1.83203,9.1041 -6.70454,21.74901 -14.34815,37.2357 -5.23487,10.60633 -9.39448,17.67662 -15.98994,27.17888 -9.42371,13.57699 -12.25102,18.80072 -15.58728,28.79896 -2.56473,7.68607 -7.60932,25.28589 -8.2208,28.68108 -0.70709,3.92611 -1.30467,21.03341 -1.65153,47.27898 l -0.30501,23.07932 -2.38086,4.76841 c -2.7645,5.53677 -6.3519,11.75112 -8.63019,14.94983 -5.33985,7.49718 -13.57219,14.74707 -21.10551,18.58678 -2.61692,1.33384 -5.31071,1.09015 -12.01565,-1.08697 -2.77522,-0.90113 -5.25804,-1.50726 -5.51738,-1.34698 -0.7897,0.48806 -1.20987,2.04956 -3.52364,13.09536 -3.74702,17.88798 -4.70611,21.35265 -7.71175,27.85833 -10.72658,23.21765 -40.68073,42.84725 -88.98315,58.31259 -13.21425,4.2309 -21.50698,5.8033 -30.60626,5.8033 h -4.72823 z m 2.47577,-230.49548 c 4.60629,-1.5825 13.96342,-6.43504 15.16712,-7.86555 2.11636,-2.51516 1.42304,-5.99526 -3.24495,-16.28804 -0.76496,-1.68671 -1.38664,-3.30002 -1.38151,-3.58514 0.005,-0.28512 1.31237,-1.3744 2.90499,-2.42062 1.63302,-1.07277 3.4365,-2.7203 4.13598,-3.77835 1.06799,-1.61544 1.23777,-2.3163 1.22191,-5.04398 -0.0218,-3.74315 -1.38825,-6.84748 -4.22671,-9.60211 -1.97098,-1.91278 -3.34827,-2.41158 -9.94734,-3.60255 -4.8841,-0.88146 -6.02569,-1.29377 -10.63227,-3.84004 -2.36884,-1.30937 -3.32324,-1.58405 -5.50387,-1.58405 -4.36901,0 -11.20807,2.77306 -15.1405,6.13907 -2.46569,2.11055 -3.81314,4.58702 -4.90816,9.02072 -0.50697,2.05269 -1.88264,5.68232 -3.05705,8.06586 -2.07206,4.20536 -2.1351,4.45313 -2.12909,8.36766 0.007,4.45184 0.44404,5.66668 2.95652,8.21524 2.9206,2.96254 4.4555,3.44873 10.54452,3.34002 l 5.44067,-0.0971 1.0092,2.78598 c 4.43244,12.23617 5.10594,13.01768 10.96469,12.72308 1.97183,-0.0992 4.59346,-0.52668 5.82585,-0.95008 z M 125.9062,255.42217 c 10.35168,-1.18585 19.40186,-4.74831 23.61014,-9.29376 3.23201,-3.49096 6.4467,-8.04102 8.54247,-12.091 l 1.70381,-3.29252 -0.004,-5.91376 c -0.004,-7.15661 -0.51456,-10.56339 -2.26156,-15.09353 -4.17301,-10.82097 -12.21396,-18.75198 -22.829,-22.51686 -3.12614,-1.10876 -11.10402,-1.542 -15.56814,-0.84543 -4.4731,0.69798 -6.82504,1.54391 -11.77053,4.23356 -3.3485,1.82112 -5.16811,3.22433 -8.523706,6.57317 -4.71976,4.71027 -7.12094,8.39303 -8.57841,13.15698 -0.852541,2.78664 -0.919,3.83182 -0.712425,11.20355 0.200172,7.14314 0.368575,8.56546 1.387094,11.71533 2.369174,7.32692 8.129873,14.03267 16.386417,19.07462 5.62675,3.43605 9.69694,4.11152 18.61723,3.08965 z M 213.31009,215.399 c 4.80165,-1.88167 9.33116,-4.94529 14.15042,-9.57094 3.66282,-3.51566 4.72258,-4.86188 6.43043,-8.16858 3.02359,-5.85423 3.54639,-8.6329 3.25167,-17.28233 -0.40606,-11.91681 -2.08009,-15.93105 -9.91563,-23.77725 -4.18536,-4.19106 -5.5753,-5.27638 -9.0124,-7.03726 -5.76254,-2.95224 -10.05651,-4.04046 -15.87847,-4.02411 -7.65222,0.0215 -14.95088,2.23116 -21.04959,6.37272 -3.44869,2.34196 -9.80372,8.65453 -11.90988,11.83031 -3.51728,5.30355 -4.91209,11.39292 -4.60189,20.09077 0.16336,4.5807 0.33519,5.43373 1.81562,9.01366 2.3741,5.74096 5.17674,9.94665 9.39587,14.09965 4.51286,4.44212 7.77199,6.93838 11.33711,8.68342 l 2.68885,1.31613 10.0832,-0.15951 c 9.73993,-0.15408 10.1898,-0.20129 13.21469,-1.38668 z m 118.84532,-34.61909 c 1.83903,-1.14345 3.39772,-3.78 5.47547,-9.26183 l 2.07761,-5.48147 6.08172,-0.22408 c 5.77004,-0.21258 6.17543,-0.28907 7.91009,-1.49246 1.91598,-1.32917 3.76371,-3.6849 4.56417,-5.81902 0.26025,-0.69385 0.47319,-2.82597 0.47319,-4.73801 0,-3.21862 -0.15265,-3.7898 -2.05819,-7.70128 -1.13201,-2.32365 -2.45668,-5.82291 -2.94372,-7.77614 -1.10784,-4.44287 -2.03869,-6.27576 -4.34456,-8.55462 -4.16467,-4.1159 -10.7116,-6.91643 -16.19762,-6.92873 -3.01294,-0.007 -3.56995,0.13395 -5.37771,1.3584 -3.59005,2.43165 -5.10038,3.01611 -10.1175,3.91521 -2.71334,0.48625 -5.99229,1.33963 -7.28654,1.89641 -4.16326,1.79098 -7.69126,7.19082 -8.0446,12.31279 l -0.18549,2.68885 2.13617,2.10595 c 1.17489,1.15827 3.31262,2.733 4.75051,3.49938 1.43789,0.76639 2.61559,1.53285 2.61711,1.70326 10e-4,0.1704 -1.25544,3.03229 -2.79325,6.35974 -2.50489,5.41999 -2.81297,6.40162 -2.95881,9.42769 -0.15772,3.27233 -0.11988,3.41972 1.21228,4.72215 1.59488,1.55929 8.54463,5.11733 13.72392,7.02618 5.69592,2.09927 9.00288,2.38104 11.28575,0.96163 z m 70.62088,-22.6883 c 6.79172,-3.15295 14.72133,-10.35069 17.51199,-15.89571 2.78998,-5.54368 3.48845,-8.57084 3.7536,-16.268 0.19238,-5.58486 0.0939,-7.51709 -0.50232,-9.85913 -2.33131,-9.15719 -9.48419,-17.363158 -19.31549,-22.159214 -6.6791,-3.258306 -8.33365,-3.608946 -17.02939,-3.608946 -7.29971,0 -7.72407,0.04954 -10.14391,1.184099 -3.51722,1.649082 -8.75832,5.261352 -12.0341,8.294149 -6.94124,6.426362 -10.9899,15.226062 -11.52951,25.059212 -0.32345,5.89402 0.37785,9.81576 2.55897,14.31002 3.38687,6.97875 9.17619,12.86205 15.90931,16.16755 6.64776,3.2636 11.61325,4.20248 21.51322,4.06773 6.24486,-0.085 6.90571,-0.17671 9.30763,-1.29176 z M 149.23128,137.36255 c 5.96673,-2.37376 14.08184,-6.54376 14.99581,-7.70569 1.7259,-2.19412 1.25895,-4.6125 -2.72274,-14.10135 -1.20443,-2.87031 -2.18987,-5.39633 -2.18987,-5.61337 0,-0.21705 1.4203,-1.45751 3.15623,-2.75658 4.16787,-3.11901 4.9077,-4.3817 4.90427,-8.370252 -0.004,-4.964468 -2.50306,-9.2783 -6.57891,-11.357643 -0.97964,-0.499773 -4.45806,-1.421516 -7.72984,-2.04831 -5.24954,-1.005693 -6.29847,-1.363324 -8.92508,-3.043023 -2.75795,-1.763685 -3.2398,-1.915453 -6.56452,-2.067664 -2.81709,-0.128971 -4.21338,0.04571 -6.49806,0.812939 -5.37651,1.805501 -10.72056,5.795874 -12.477,9.316508 -0.45688,0.915783 -1.17575,3.07671 -1.59749,4.802057 -0.42174,1.725347 -1.7122,5.153628 -2.86769,7.618418 -2.0186,4.30588 -2.10059,4.63939 -2.0932,8.51469 0.009,4.6303 0.82135,6.70692 3.56772,9.11826 2.64663,2.32377 4.23508,2.75751 10.09877,2.75751 h 5.27411 l 1.85352,5.04159 c 2.32017,6.3109 3.44618,8.31832 5.42132,9.66501 1.37154,0.93514 1.94359,1.04043 4.69866,0.86483 1.98143,-0.12628 4.29256,-0.65966 6.27399,-1.44793 z m 177.24016,-17.86917 c 9.38723,-4.87832 18.81197,-16.09157 21.33488,-25.383563 1.09867,-4.046453 1.10047,-13.881991 0.003,-17.889846 C 344.424,63.853609 331.04965,52.197069 317.89885,50.15109 c -1.90176,-0.295872 -5.77512,-0.421132 -9.12914,-0.295227 -4.74101,0.177971 -6.38547,0.426555 -8.83112,1.334957 -5.11444,1.899674 -9.21609,4.667448 -14.08265,9.502909 -3.87962,3.854837 -4.80247,5.064963 -6.34498,8.320137 -2.99102,6.311963 -3.44867,8.585087 -3.42855,17.029395 0.0163,6.832113 0.11073,7.674248 1.24214,11.07561 2.08194,6.258929 7.59253,13.219299 13.90349,17.561359 2.94144,2.02376 10.0174,5.36072 12.38803,5.84208 1.10916,0.22521 6.15075,0.37403 11.20355,0.33072 9.16347,-0.0786 9.1932,-0.082 11.6517,-1.35965 z M 88.7725,115.90633 c 5.096804,-1.10902 11.45217,-3.29044 13.62974,-4.67828 4.11851,-2.6249 9.14586,-8.83408 13.1431,-16.232799 l 2.06383,-3.820051 -0.42322,-6.294195 c -0.23277,-3.461807 -0.73277,-7.765758 -1.11111,-9.564331 C 113.39264,62.565941 103.01657,51.479607 90.85342,48.368797 84.42744,46.725308 74.515695,47.42408 68.273036,49.960701 61.872097,52.561632 53.696007,59.597609 50.28956,65.436469 c -3.031224,5.195709 -3.687585,8.135852 -3.649866,16.349443 0.03756,8.179828 0.791816,11.861476 3.590375,17.525323 3.116092,6.306485 11.071644,13.284975 18.959524,16.631005 2.372611,1.00647 2.9015,1.05459 9.459325,0.86076 3.820411,-0.11292 8.376021,-0.51642 10.123582,-0.89667 z m 77.4173,-38.139122 c 8.26634,-1.473365 18.34884,-8.364306 23.4372,-16.018284 1.1048,-1.661863 2.64512,-4.689972 3.42293,-6.729121 1.39425,-3.655225 1.41441,-3.821378 1.42895,-11.774101 0.0132,-7.214176 -0.0957,-8.421715 -1.03013,-11.427621 -2.73705,-8.804334 -9.55004,-16.671889 -18.37559,-21.219917 -6.13979,-3.1639855 -8.23293,-3.6455931 -15.75868,-3.6258914 -6.1417,0.016078 -6.73154,0.09708 -10.75541,1.477015 -7.9542,2.7277904 -14.36393,7.2407624 -19.82415,13.9578114 -4.9439,6.081886 -6.70644,11.505824 -6.69881,20.614532 0.004,4.987127 0.15176,6.058098 1.34502,9.760613 2.61842,8.124518 8.02554,15.063961 16.76958,21.521907 3.2875,2.427988 5.10284,3.29279 7.71882,3.67713 3.89442,0.572165 14.61168,0.446937 18.32027,-0.214073 z"
     id="path1463"
     transform="scale(0.75)" />
  <path
     style="fill:#99ccff;stroke-width:0.448142"
     d="m 68.789795,270.51888 c -9.733601,-3.4627 -14.339671,-7.96178 -16.405129,-16.02405 -0.915036,-3.57173 -0.648386,-6.91249 0.962071,-12.05343 2.265214,-7.23108 4.862542,-10.43353 11.578631,-14.27618 3.990216,-2.28303 6.053552,-2.73737 7.20451,-1.58641 0.697755,0.69776 0.767179,1.28724 0.511984,4.34724 -0.375941,4.50786 -1.075555,7.82701 -1.97643,9.3767 -0.389751,0.67045 -1.737591,1.92767 -2.995201,2.79382 -2.238198,1.5415 -3.801811,3.2669 -4.387867,4.84188 -0.508501,1.36654 0.455392,2.93126 4.313632,7.00243 3.39715,3.58463 3.815014,4.22275 4.466502,6.82078 1.349517,5.38167 1.331566,9.84339 -0.03944,9.80293 -0.176187,-0.005 -1.631155,-0.47577 -3.233262,-1.04571 z"
     id="path1687"
     transform="scale(0.75)" />
  <path
     style="fill:#99ccff;stroke-width:0.448142"
     d="m 22.909112,130.56524 c -3.958696,-1.69259 -5.358825,-2.55741 -7.444527,-4.59827 -3.961211,-3.87604 -6.261077,-9.14973 -6.2723553,-14.38277 -0.010054,-4.66481 2.9560833,-13.381357 5.6293763,-16.542971 1.613578,-1.908325 8.429578,-6.426173 11.033766,-7.313509 3.775005,-1.286274 4.58096,-0.0164 3.940115,6.208086 -0.707681,6.873654 -0.986894,7.398574 -6.27217,11.791694 -2.199781,1.82846 -3.302927,3.77681 -2.945264,5.20185 0.143291,0.57092 1.843431,2.651 3.77809,4.6224 1.934658,1.97141 3.855648,4.29684 4.268865,5.16764 1.043764,2.19956 1.694458,6.06914 1.534953,9.12813 -0.124119,2.38034 -0.22052,2.58704 -1.254803,2.69041 -0.616195,0.0616 -3.314416,-0.82612 -5.996046,-1.97269 z"
     id="path1726"
     transform="scale(0.75)" />
  <path
     style="fill:#99ccff;stroke-width:0.448142"
     d="m 227.98179,41.205513 c -3.29606,-2.666964 -7.27186,-7.436853 -7.27186,-8.724265 0,-0.505067 0.40333,-2.065842 0.89628,-3.468391 1.10511,-3.14424 1.11848,-4.952907 0.0539,-7.29651 -1.44656,-3.184603 -4.65946,-5.126177 -8.49335,-5.132594 -0.82127,-0.0014 -2.9913,0.514569 -4.82229,1.146541 -1.83099,0.631973 -3.71166,1.027614 -4.17926,0.879203 -1.12395,-0.356727 -4.51799,-4.061845 -4.51799,-4.93208 0,-1.137225 5.22223,-4.6305435 8.38063,-5.6060728 5.23721,-1.6176097 10.22635,-1.0036541 16.71533,2.0569618 7.08222,3.340432 9.94373,6.549041 10.71829,12.018446 0.8246,5.822703 -1.58682,18.470383 -3.92503,20.586431 -0.72895,0.659688 -0.99003,0.547483 -3.55468,-1.52767 z"
     id="path1765"
     transform="scale(0.75)" />
  <path
     style="fill:#99ccff;stroke-width:0.448142"
     d="m 244.57715,63.300055 c -2.89492,-6.156782 -3.03149,-6.645137 -2.20921,-7.900082 0.82922,-1.26555 6.35797,-4.215502 9.43744,-5.035499 3.25158,-0.865825 6.88344,-0.764928 10.28507,0.285729 3.51685,1.086245 8.53221,4.310629 8.71752,5.604509 0.16542,1.155016 -3.57064,5.14074 -4.81873,5.14074 -0.49191,0 -2.45854,-0.52507 -4.37029,-1.166821 -4.08528,-1.371387 -6.38551,-1.245889 -9.38519,0.512046 -1.568,0.918904 -2.21282,1.724932 -3.39735,4.246664 -0.80412,1.71187 -1.58174,3.116485 -1.72804,3.121366 -0.14631,0.0049 -1.28536,-2.159012 -2.53122,-4.808652 z"
     id="path1804"
     transform="scale(0.75)" />
  <path
     style="fill:#ffdb9d;stroke-width:0.448142"
     d="m 440.59826,174.92475 c -0.84225,-0.84224 0.13661,-9.16169 1.35522,-11.51822 0.39537,-0.76456 2.40327,-3.14105 4.462,-5.28108 4.75272,-4.9404 4.86791,-5.72092 1.33927,-9.0744 -1.32213,-1.2565 -3.03195,-2.75005 -3.79961,-3.319 -1.84652,-1.36856 -2.75286,-4.40454 -3.08252,-10.32555 -0.29126,-5.23105 -0.0848,-5.65341 2.53912,-5.19407 3.07186,0.53776 10.08113,4.75408 12.31332,7.40689 1.80447,2.14448 3.26822,5.29922 4.57901,9.86886 2.43023,8.47221 0.6018,15.74287 -5.36199,21.3217 -2.36834,2.21546 -3.66903,3.00206 -7.5207,4.54817 -4.49963,1.80621 -6.19445,2.19537 -6.82312,1.5667 z"
     id="path1843"
     transform="scale(0.75)" />
  <path
     style="fill:#ffdb9d;stroke-width:0.448142"
     d="m 163.80511,258.96302 c -3.97552,-1.54667 -6.21718,-8.55779 -4.24517,-13.27745 1.54005,-3.68588 3.44456,-4.80151 10.23528,-5.99563 6.17075,-1.08511 8.5572,-2.15385 12.82863,-5.74514 4.86645,-4.09157 6.26348,-4.91446 9.30301,-5.47972 5.32533,-0.99035 11.19858,1.39571 13.46086,5.46859 0.90708,1.63305 1.06022,2.3501 0.79915,3.74175 -0.68486,3.6506 -6.51219,7.45825 -11.4143,7.45825 -6.05149,0 -14.17299,3.49114 -20.37938,8.76037 -5.41542,4.59769 -8.27751,5.9679 -10.58808,5.06898 z"
     id="path1919"
     transform="scale(0.75)" />
  <path
     style="fill:#ffdb9d;stroke-width:0.448142"
     d="m 119.70184,119.61155 c -1.44912,-1.13988 -2.78099,-3.6534 -3.40037,-6.41722 -0.90607,-4.04308 1.10785,-8.85315 4.41261,-10.53911 0.95226,-0.48581 3.62408,-1.19278 5.93738,-1.57105 7.35457,-1.202619 8.49647,-1.747893 14.91018,-7.119816 4.34544,-3.639605 6.70322,-4.531719 11.20057,-4.237954 4.85876,0.317373 8.40907,2.366392 10.21993,5.898303 2.44592,4.770547 -2.97292,10.193997 -10.83794,10.847137 -8.22234,0.68281 -14.68579,3.53008 -21.02047,9.25988 -4.99646,4.51937 -8.91617,5.85083 -11.42189,3.87983 z"
     id="path1958"
     transform="scale(0.75)" />
  <path
     style="fill:#deffff;stroke-width:0.448142"
     d="m 344.17304,161.82768 c -1.23239,-0.70818 -3.49371,-2.40703 -5.02517,-3.77523 -5.66583,-5.06185 -12.64298,-8.14543 -19.9899,-8.8346 -4.80119,-0.45037 -8.07704,-1.88945 -10.35254,-4.54785 -2.09714,-2.45004 -2.36471,-3.92125 -1.16418,-6.40122 1.78601,-3.68939 7.53967,-6.40244 12.60399,-5.94323 3.17582,0.28798 5.85174,1.69474 10.0354,5.27575 4.29779,3.6787 7.52503,5.18444 12.95454,6.04421 7.17665,1.13644 9.03615,2.25348 10.56834,6.34861 1.13965,3.04601 1.13567,4.84993 -0.0175,7.93208 -1.87729,5.01755 -5.27266,6.39557 -9.61296,3.90148 z"
     id="path1997"
     transform="scale(0.75)" />
  <path
     style="fill:#99ccff;stroke-width:0.448142"
     d="m 440.6178,173.8791 c -0.26837,-1.02624 0.34501,-6.43337 1.00989,-8.90256 0.29033,-1.07818 1.72927,-3.07513 4.0922,-5.67912 3.79821,-4.1857 4.92174,-6.0268 4.54861,-7.45368 -0.12162,-0.46508 -1.80495,-2.317 -3.74074,-4.11538 -4.47402,-4.15645 -4.97346,-5.30598 -5.23688,-12.05337 l -0.20557,-5.26567 h 1.47827 c 1.77463,0 6.9668,2.49409 10.03985,4.8227 3.13502,2.37557 4.83437,4.80532 6.55078,9.36637 1.39021,3.6942 1.49201,4.33757 1.51312,9.56245 0.0213,5.27148 -0.0525,5.75487 -1.2516,8.19824 -1.62158,3.30425 -5.40638,7.40397 -8.27823,8.96702 -2.92479,1.59188 -7.89369,3.44927 -9.22747,3.44927 -0.68096,0 -1.14136,-0.31932 -1.29223,-0.89627 z"
     id="path2110"
     transform="scale(0.75)" />
  <path
     style="fill:none;stroke:#000000;stroke-width:0.75px;stroke-linecap:butt;stroke-linejoin:miter;stroke-opacity:1"
     d="m 247.6,304.1 c 1.45218,0.51308 3.75672,0.62481 5.11795,1.64137 0.25143,0.18776 0.3801,0.54443 0.6722,0.65909 0.31247,0.12263 0.6779,-0.066 1.00701,0 0.3531,0.0709 0.94407,0.577 1.29322,0.66695 1.33833,0.34481 2.57681,0.65681 3.90068,0.61707"
     id="path2287" />
  <path
     style="fill:none;stroke:#000000;stroke-width:0.75px;stroke-linecap:butt;stroke-linejoin:miter;stroke-opacity:1"
     d="m 247.6,304.1 c 1.49504,1.04385 2.95598,2.13831 4.48512,3.13153 1.38197,0.89763 5.86101,0.86749 7.50594,0.45295"
     id="path2289" />
  <path
     style="fill:none;stroke:#000000;stroke-width:0.75px;stroke-linecap:butt;stroke-linejoin:miter;stroke-opacity:1"
     d="m 245.67808,345.95992 c -1.26287,-0.46731 -2.61366,-0.78156 -3.23108,-1.38775 -0.10807,-0.10611 -0.51913,0.0745 -0.65646,0 -1.67338,-0.90803 1.2822,0.46919 -0.55273,-0.69584 -0.61176,-0.38842 -1.89356,-0.97199 -2.45647,-1.16456"
     id="path2291" />
  <path
     style="fill:none;stroke:#000000;stroke-width:0.75px;stroke-linecap:butt;stroke-linejoin:miter;stroke-opacity:1"
     d="m 249.5,332.4 c 0.0613,0.44425 -0.26045,1.394 0.1838,1.33273 0.44424,-0.0613 0.2486,-1.21383 -0.1838,-1.33273 -0.75703,-0.20816 -1.50208,0.45887 -2.26086,0.66052 -0.47493,0.12623 -2.36599,-0.74113 -2.91598,-0.88227 -0.28566,-0.0734 -0.69567,-2.31684 0.6407,-1.75669 1.52136,0.6377 3.0241,1.31896 4.53614,1.97844"
     id="path2293" />
  <path
     style="fill:#99ccff;stroke-width:0.448142"
     d="m 162.79441,533.3485 c -0.59464,-0.70669 -1.34988,-1.93362 -1.6783,-2.72651 -0.84238,-2.03367 0.0882,-4.75821 4.78884,-14.02067 5.7977,-11.42416 7.49396,-13.17542 11.67785,-12.0564 3.86898,1.0348 11.30905,6.09565 11.30905,7.69259 0,0.43975 -1.42136,2.95613 -3.15857,5.59195 -1.73721,2.63582 -4.09409,6.52265 -5.23752,8.63741 -2.32823,4.30603 -4.11971,6.55069 -6.00711,7.52671 -2.56034,1.324 -4.58828,-0.12912 -7.61026,-5.45313 l -1.75617,-3.09397 0.29415,3.91383 c 0.21467,2.85632 0.14175,4.09746 -0.26989,4.59345 -0.78674,0.94796 -1.11653,0.8631 -2.35207,-0.60526 z"
     id="path2371"
     transform="scale(0.75)" />
  <path
     id="path2486"
     style="fill:#ffdb9d"
     d="M 320.32422 132.66406 C 319.76641 132.6624 319.10668 132.6891 318.28125 132.73242 C 313.84589 132.96521 310.48067 134.53508 308.46875 137.31055 C 306.5544 139.95142 306.71465 142.00045 309.03125 144.51367 C 311.46989 147.15927 313.71237 148.16222 319.07617 149.00586 C 327.40412 150.31571 332.83762 152.68972 338.83984 157.64062 C 340.41727 158.94177 342.65513 160.60782 343.8125 161.3418 C 346.60095 163.11018 349.53499 163.19283 351.30469 161.55273 C 355.01375 158.11529 355.3068 150.77056 351.88281 147.05078 C 350.51284 145.56245 348.67537 144.8661 343.37109 143.82422 C 337.84876 142.73951 334.51551 141.1765 330.05664 137.58203 C 328.20806 136.09181 325.63361 134.34713 324.33594 133.70508 C 322.75518 132.92301 321.99764 132.66905 320.32422 132.66406 z M 325.08594 443.66602 C 324.60561 443.65722 322.53603 447.86623 321.58203 450.79297 C 320.23052 454.9392 320.32823 456.70024 321.97266 457.91602 C 322.70272 458.45578 323.96173 458.89752 324.77344 458.89844 C 326.8612 458.90081 328.58087 460.10215 331.64453 463.69336 L 334.31445 466.82227 L 336.05078 465.46484 C 338.97507 463.18272 339.56302 461.86219 339.31055 458.13477 C 339.19029 456.35987 339.19996 454.49525 339.33203 453.99023 C 339.41364 453.67816 339.56367 453.44975 339.75 453.30273 L 340.47656 453.3125 C 340.64043 453.31485 340.78466 453.30297 340.91406 453.2793 C 341.18045 453.43851 341.4281 453.70423 341.60938 454.08008 C 342.0598 455.01404 342.09885 454.97205 342.12695 453.50781 C 342.1603 451.76938 341.4968 450.5777 339.06445 448.00195 C 336.81328 445.61806 334.61421 444.29985 333.9668 444.94727 C 333.79879 445.11527 333.59561 445.23733 333.38281 445.31836 C 332.9348 445.38033 332.57906 445.39962 332.32617 445.37305 C 332.04364 445.2769 331.84961 445.0766 331.84961 444.78125 C 331.84961 444.03971 331.609 444.00039 330.28125 444.52734 C 329.75807 444.73498 328.54436 444.63134 327.36719 444.27734 C 326.25804 443.9438 325.23162 443.66902 325.08594 443.66602 z "
     transform="scale(0.75)" />
  <path
     style="fill:#99ccff;stroke-width:0.448142"
     d="m 330.95286,462.83914 c -3.08732,-3.25702 -3.57489,-3.59457 -5.98635,-4.14436 -1.4439,-0.32919 -2.93,-0.90326 -3.30244,-1.2757 -1.06238,-1.06238 -0.76627,-4.17415 0.7747,-8.14135 2.04106,-5.25466 2.21657,-5.43107 4.81148,-4.83637 1.17376,0.269 2.68869,0.38152 3.3665,0.25005 0.81225,-0.15755 1.23239,-0.0489 1.23239,0.31861 0,0.40142 0.51216,0.47577 1.82797,0.26536 1.79462,-0.28697 1.88456,-0.23571 4.92956,2.80929 3.47309,3.47309 4.11218,5.26077 1.8692,5.22861 l -1.23239,-0.0177 -0.22407,4.5596 c -0.23968,4.87723 -0.59331,5.64095 -3.58513,7.74269 l -1.12036,0.78704 z"
     id="path2753"
     transform="scale(0.75)" />
  <path
     style="fill:#99ccff;stroke-width:0.448142"
     d="m 271.24549,180.39873 c -2.82688,-2.15849 -7.43149,-7.36237 -7.72998,-8.73602 -0.13779,-0.63409 0.15477,-2.2891 0.65586,-3.7103 0.49754,-1.4111 0.90461,-3.28296 0.90461,-4.15971 0,-1.79993 -0.99939,-4.47422 -2.14576,-5.7419 -2.34972,-2.59836 -7.47933,-3.31215 -11.85387,-1.64947 -3.61746,1.37492 -4.39792,1.21912 -6.80989,-1.35948 -1.16062,-1.2408 -2.02907,-2.5012 -1.92989,-2.80089 0.3649,-1.1026 4.80616,-4.28781 7.34857,-5.27029 5.61614,-2.17027 13.43827,-0.96277 20.34548,3.14073 5.63619,3.3484 7.69145,6.20334 8.28627,11.51036 0.65892,5.87889 -2.66172,20.32389 -4.6721,20.32389 -0.20535,0 -1.28504,-0.69612 -2.3993,-1.54692 z"
     id="path2792"
     transform="scale(0.75)" />
  <path
     style="fill:#99ccff;stroke-width:0.448142"
     d="m 132.76756,484.40867 c -2.16296,-1.26016 -1.85036,-3.52603 0.87324,-6.32951 l 1.60962,-1.65683 1.32027,1.65683 c 1.59783,2.00517 2.5774,3.82733 2.5774,4.79444 0,1.45292 -4.61555,2.56336 -6.38053,1.53507 z"
     id="path14190"
     transform="scale(0.75)" />
  <path
     style="fill:#ffffff;stroke-width:0.448142"
     d="m 113.52011,251.70303 c -4.19068,-1.5178 -8.89415,-4.76846 -13.37825,-9.24596 -6.158192,-6.14913 -7.739902,-10.4921 -7.757105,-21.299 -0.01592,-10.00013 1.068367,-13.05836 6.774326,-19.10698 5.968159,-6.32656 11.936609,-10.36921 17.133769,-11.60532 2.9036,-0.69061 14.22965,-0.6871 17.92568,0.006 5.66137,1.06095 11.00477,4.90081 15.11191,10.85967 6.22221,9.0275 8.77654,18.46971 7.12697,26.34514 -1.76591,8.43082 -8.13204,16.56933 -16.20629,20.71823 -6.14193,3.15599 -9.55554,3.99188 -17.23614,4.22058 -6.02227,0.17933 -6.71749,0.11402 -9.49487,-0.89191 z m 34.42554,-29.02652 c 3.40262,-1.7055 3.9841,-2.85552 3.92189,-7.75647 -0.0634,-4.99301 -0.71333,-7.31694 -2.10165,-7.51451 -0.62634,-0.0891 -1.03521,-0.50954 -1.1274,-1.15922 -0.46502,-3.277 -8.32165,-3.54348 -13.2065,-0.44792 -2.9898,1.89464 -3.45417,3.01384 -3.45417,8.32496 0,3.86164 0.13103,4.63183 1.00984,5.9359 1.10474,1.63933 3.21004,3.04207 5.41662,3.60905 2.54737,0.65455 7.22733,0.16809 9.54137,-0.99179 z"
     id="path121"
     transform="scale(0.75)" />
  <path
     style="fill:#ffffff;stroke-width:0.448142"
     d="m 194.20489,213.56552 c -6.88612,-1.44323 -12.84932,-4.98053 -18.21752,-10.80642 -3.57668,-3.88163 -5.40472,-7.272 -6.87294,-12.74689 -1.31868,-4.91728 -1.40428,-12.33088 -0.18886,-16.35719 1.77672,-5.88569 5.51787,-11.53946 10.21718,-15.4406 3.46203,-2.874 13.25951,-7.76413 17.66903,-8.81899 l 3.21443,-0.76896 7.04051,1.37909 c 8.73811,1.71162 12.96391,3.61265 16.90961,7.60702 3.07225,3.11013 3.84952,4.20909 6.11658,8.6481 7.29463,14.28318 5.18986,28.34631 -5.78811,38.6736 -3.88654,3.65617 -9.53667,6.81519 -14.57435,8.1486 -3.79852,1.00541 -11.83865,1.25536 -15.52556,0.48264 z m 32.2508,-27.99387 c 3.38229,-1.72552 5.36251,-6.48508 4.88573,-11.74311 -0.48463,-5.34469 -3.28431,-7.62676 -9.72733,-7.92896 -3.71939,-0.17446 -3.87412,-0.14059 -6.04586,1.32342 -3.89988,2.62897 -5.44086,6.01733 -5.03875,11.07935 0.32765,4.1247 2.01411,6.08481 6.66169,7.74264 2.97422,1.06093 6.62246,0.87453 9.26452,-0.47334 z"
     id="path160"
     transform="scale(0.75)" />
  <path
     style="fill:#ffffff;stroke-width:0.448142"
     d="m 184.61228,274.99776 c -2.75061,-1.23994 -5.70547,-6.11896 -7.15628,-11.81635 -0.98169,-3.85518 -0.9905,-5.94303 -0.0312,-7.39963 0.92204,-1.40003 5.9841,-4.93204 6.71797,-4.68741 0.26724,0.0891 1.62991,2.32276 3.02817,4.96374 3.08733,5.83127 4.77282,8.16187 5.42847,7.50621 0.32408,-0.32407 -0.24071,-1.86104 -1.84429,-5.01885 -3.52293,-6.93748 -3.05973,-9.04527 2.1965,-9.9951 1.31211,-0.2371 1.88452,-0.0689 3.22745,0.94843 4.39175,3.32691 9.44624,13.02919 8.58185,16.47317 -0.42085,1.6768 -2.63279,2.90951 -5.22441,2.91155 -1.81864,0.001 -2.38943,-0.23507 -3.93308,-1.62967 -0.99314,-0.89724 -1.92637,-1.51067 -2.07386,-1.36319 -0.14748,0.14749 -0.40436,1.537 -0.57084,3.08781 -0.16648,1.55081 -0.53645,3.24483 -0.82216,3.7645 -1.22119,2.22121 -5.05212,3.36921 -7.52429,2.25479 z"
     id="path199"
     transform="scale(0.75)" />
  <path
     style="fill:#ffffff;stroke-width:0.448142"
     d="m 324.51869,179.24878 c -2.76468,-0.83848 -4.32124,-3.38631 -4.32124,-7.07317 0,-1.19923 -0.13168,-2.3121 -0.29263,-2.47305 -0.16095,-0.16095 -1.16476,0.51126 -2.2307,1.49381 -1.63064,1.50307 -2.24176,1.78617 -3.85268,1.78476 -2.35405,-0.002 -4.69904,-1.34696 -5.09427,-2.92167 -0.78669,-3.13442 2.34711,-10.09353 6.66943,-14.81058 l 2.71194,-2.95961 1.99914,0.29979 c 2.80798,0.42109 3.98473,1.05221 4.56247,2.44701 0.60849,1.46903 -0.1721,4.0663 -2.48884,8.28108 -1.54208,2.80547 -1.91906,4.28796 -1.09038,4.28796 0.72128,0 3.10967,-3.53843 4.99109,-7.39435 0.96211,-1.97182 2.05215,-3.98184 2.42231,-4.4667 0.66928,-0.87666 0.68229,-0.87666 2.33775,0 0.9156,0.48486 2.65476,1.83021 3.8648,2.98966 l 2.20007,2.10809 -0.2901,2.46826 c -0.69576,5.91983 -4.46168,14.08112 -7.09946,15.38553 -1.54653,0.76477 -3.56464,0.9881 -4.9987,0.55318 z"
     id="path238"
     transform="scale(0.75)" />
  <path
     style="fill:#ffffff;stroke-width:0.448142"
     d="m 305.06654,117.40721 c -7.49288,-1.9633 -15.07587,-6.5515 -19.09644,-11.55459 -7.50608,-9.340355 -8.96791,-20.229835 -4.32824,-32.241944 4.15786,-10.764711 9.70576,-15.786471 20.64588,-18.687908 10.10067,-2.678806 13.63869,-2.400088 22.2801,1.755187 8.37905,4.029113 13.24718,8.080181 16.84561,14.01827 3.80241,6.274695 4.87092,14.225605 2.99989,22.322533 -1.54975,6.706607 -3.40952,9.958172 -8.70919,15.226942 -3.74339,3.72156 -5.18673,4.82468 -8.33642,6.37141 -7.259,3.56468 -15.43919,4.5881 -22.30119,2.7901 z m -7.84239,-27.779534 c 2.41903,-1.07005 3.95508,-2.371313 4.86613,-4.122336 0.93972,-1.80611 0.81272,-7.759291 -0.2132,-9.993414 -1.01105,-2.201759 -1.79315,-2.912533 -5.14055,-4.671757 -6.1322,-3.222772 -12.54164,-0.797841 -14.39602,5.44656 -0.84928,2.859812 -0.86063,4.543336 -0.0488,7.240735 1.93018,6.413521 8.32157,9.024528 14.93247,6.100212 z"
     id="path277"
     transform="scale(0.75)" />
  <path
     style="fill:#ffffff;stroke-width:0.448142"
     d="m 382.93733,155.99541 c -5.04919,-1.11448 -8.2782,-2.37816 -11.65709,-4.56204 -9.2617,-5.98613 -14.88646,-15.45527 -14.88429,-25.05733 9.5e-4,-4.19551 1.94552,-10.90928 4.93236,-17.02939 3.43945,-7.04751 9.98197,-12.885417 16.38825,-14.623278 6.33821,-1.719394 18.53816,-1.13238 23.37052,1.124496 5.15175,2.406039 15.44435,11.696642 17.82175,16.086782 1.53224,2.82947 2.12377,6.37565 2.10494,12.61909 -0.0309,10.23173 -1.79829,15.58598 -6.94627,21.04311 -3.79062,4.01826 -7.96673,7.20226 -12.26291,9.34964 -3.25919,1.62906 -3.41596,1.65932 -9.18691,1.77352 -4.43512,0.0878 -6.80283,-0.0895 -9.68035,-0.7246 z m -5.64344,-29.35528 c 3.45143,-1.68863 4.05909,-2.80374 3.97291,-7.29059 -0.092,-4.79078 -0.6786,-6.81545 -2.46612,-8.51199 -2.08286,-1.97686 -4.14668,-2.90127 -7.02753,-3.14773 -3.48066,-0.29776 -5.90962,0.57656 -6.72097,2.41928 -0.37219,0.8453 -1.01653,1.48964 -1.5685,1.56849 -1.35566,0.19368 -2.00222,2.55563 -2.03187,7.42273 -0.0248,4.07706 10e-4,4.18063 1.43592,5.74635 3.12692,3.41206 9.48104,4.2031 14.40616,1.79346 z"
     id="path316"
     transform="scale(0.75)" />
  <path
     style="fill:#ffffff;stroke-width:0.448142"
     d="m 364.84802,119.62139 c -1.51597,-1.19247 -1.52948,-2.54594 -0.0311,-3.11563 2.23865,-0.85113 3.61116,0.9513 2.41967,3.17761 -0.58654,1.09596 -0.92775,1.08711 -2.38858,-0.062 z"
     id="path355"
     transform="scale(0.75)" />
  <path
     style="fill:#ffffff;stroke-width:0.448142"
     d="m 285.13034,81.974089 c -1.0431,-0.607554 -0.99765,-2.059066 0.0826,-2.637189 1.26655,-0.67784 2.04072,-0.574172 3.22884,0.432375 l 1.05797,0.896284 -1.05797,0.896284 c -1.1657,0.987555 -2.11975,1.106327 -3.31142,0.412246 z"
     id="path394"
     transform="scale(0.75)" />
  <path
     style="fill:#ffffff;stroke-width:0.448142"
     d="m 154.02321,75.269024 c -6.36539,-0.857125 -11.76781,-3.230817 -16.79974,-7.381387 -7.57361,-6.247073 -11.23907,-13.613688 -11.84191,-23.799175 -0.46412,-7.841832 2.24747,-15.226169 7.78912,-21.211657 4.42398,-4.778309 10.52988,-8.550654 18.44006,-11.392629 4.0747,-1.463964 6.14142,-1.473369 13.24331,-0.06026 10.08297,2.006263 15.10981,4.798968 19.31822,10.7324 4.70521,6.633858 6.94926,12.93051 7.27643,20.417178 0.2655,6.075482 -0.42439,9.703045 -2.76754,14.552233 -5.87435,12.157098 -20.85884,20.001415 -34.65795,18.143302 z m 29.26687,-28.164838 c 2.26294,-1.044418 3.60649,-2.499038 4.40895,-4.773447 1.5468,-4.384111 1.42696,-8.899355 -0.30567,-11.516114 -1.86616,-2.818434 -7.78077,-4.601272 -11.7315,-3.53622 -2.83153,0.763334 -5.39363,2.924576 -6.74752,5.691847 -1.07171,2.190487 -1.17748,2.827546 -0.99444,5.989438 0.13172,2.275427 0.47602,3.952123 0.96467,4.697906 0.8286,1.264603 3.32085,2.977015 5.44267,3.73963 2.20976,0.794224 6.94231,0.639493 8.96284,-0.29304 z"
     id="path433"
     transform="scale(0.75)" />
  <path
     style="fill:#ffffff;stroke-width:0.448142"
     d="M 73.319763,113.82203 C 66.415452,112.35897 55.65023,103.92182 52.513114,97.51499 50.735689,93.885015 49.949268,90.414672 49.659601,84.922908 49.090484,74.133116 50.77328,69.107341 57.073159,62.781851 66.972042,52.842726 72.12282,50.690073 84.698837,51.236315 c 7.079577,0.307503 9.987785,0.997886 13.731658,3.259776 8.755525,5.289718 16.941925,21.36475 15.837545,31.09903 -0.86577,7.631092 -3.2747,12.524775 -8.96855,18.219369 -3.6046,3.60507 -4.66827,4.37516 -8.76637,6.34677 -2.565205,1.23413 -5.974826,2.57577 -7.576934,2.98144 -3.42765,0.86791 -12.82072,1.276 -15.636423,0.67933 z M 104.86523,84.253925 c 4.01678,-1.766486 5.03279,-4.158149 4.30255,-10.128099 -0.51947,-4.246798 -1.0499,-5.560101 -2.24566,-5.560101 -0.55033,0 -0.9105,-0.430002 -1.08313,-1.293102 -0.72377,-3.61889 -10.299406,-2.966979 -14.37669,0.978768 -1.711695,1.656475 -1.983167,2.19262 -2.258102,4.459648 -0.423317,3.490531 0.105473,7.236002 1.261673,8.936564 2.395046,3.522677 9.423079,4.79477 14.399359,2.606322 z"
     id="path472"
     transform="scale(0.75)" />
  <path
     style="fill:#ffffff;stroke-width:0.448142"
     d="m 103.52758,77.087913 c -0.90698,-1.002198 -0.62378,-3.021832 0.48329,-3.446657 1.02747,-0.394276 2.871,0.612271 2.871,1.567535 0,0.770786 -0.84252,1.774706 -2.06879,2.465113 -0.27515,0.154917 -0.85363,-0.108779 -1.2855,-0.585991 z"
     id="path511"
     transform="scale(0.75)" />
  <path
     style="fill:#ffffff;stroke-width:0.448142"
     d="m 140.28675,135.29484 c -2.974,-2.61121 -6.93091,-12.89774 -6.30041,-16.3788 0.4144,-2.28792 6.01811,-6.88755 7.63511,-6.26705 0.32995,0.12662 1.71973,2.40993 3.0884,5.07403 2.89657,5.63815 4.4468,7.75917 5.16101,7.06131 0.34261,-0.33477 -0.16715,-1.74327 -1.75912,-4.86057 -2.65801,-5.20477 -2.91507,-7.2934 -1.0757,-8.74024 1.80004,-1.41592 4.06569,-1.67096 5.93225,-0.6678 2.04959,1.10152 5.02327,4.91629 7.1234,9.13819 1.3601,2.73422 1.67338,3.85798 1.67974,6.02548 0.007,2.53197 -0.0679,2.71574 -1.5149,3.69717 -2.56391,1.73891 -5.64722,1.21303 -8.06543,-1.37563 -0.5904,-0.63202 -1.24581,-1.0426 -1.45646,-0.91241 -0.21065,0.13018 -0.383,1.40496 -0.383,2.83283 0,4.37685 -2.23077,6.74241 -6.37043,6.75535 -1.72903,0.005 -2.4005,-0.24575 -3.69446,-1.38186 z"
     id="path550"
     transform="scale(0.75)" />
  <path
     style="fill:#ffffff;stroke-width:0.448142"
     d="m 324.51869,179.24878 c -2.78464,-0.84453 -4.32124,-3.38625 -4.32124,-7.14786 0,-1.37618 -0.19715,-2.2551 -0.50586,-2.2551 -0.27822,0 -1.28712,0.70582 -2.242,1.56849 -1.41116,1.2749 -2.09241,1.56819 -3.63945,1.56682 -2.34249,-0.002 -4.68866,-1.35063 -5.08297,-2.92167 -0.78669,-3.13442 2.34711,-10.09353 6.66943,-14.81058 l 2.71194,-2.95961 1.99914,0.29979 c 2.80798,0.42109 3.98473,1.05221 4.56247,2.44701 0.60849,1.46903 -0.1721,4.0663 -2.48884,8.28108 -1.54208,2.80547 -1.91906,4.28796 -1.09038,4.28796 0.69836,0 2.93436,-3.32787 4.9224,-7.32609 2.62571,-5.28064 2.80621,-5.47177 4.50358,-4.7687 0.76545,0.31706 2.51703,1.6406 3.89239,2.9412 l 2.50065,2.36472 -0.29159,2.48104 c -0.69671,5.92789 -4.43757,14.09308 -7.04321,15.37324 -1.60572,0.78889 -3.60723,1.01779 -5.05646,0.57826 z"
     id="path589"
     transform="scale(0.75)" />
  <path
     style="fill:#ffffff;stroke-width:0.448142"
     d="m 194.26955,213.57112 c -7.04326,-1.49538 -12.69832,-4.81118 -18.07391,-10.59749 -3.7794,-4.06815 -5.58024,-7.3644 -7.08121,-12.96142 -1.31814,-4.91528 -1.41603,-12.33961 -0.21567,-16.35719 1.81871,-6.08712 6.15143,-12.38008 11.11576,-16.1448 5.05302,-3.83198 16.39318,-8.75712 20.063,-8.71357 0.62603,0.007 4.04751,0.59708 7.6033,1.31033 8.12085,1.62896 12.46862,3.6315 16.29551,7.5056 3.07225,3.11013 3.84952,4.20909 6.11658,8.6481 7.29463,14.28318 5.18986,28.34631 -5.78811,38.6736 -3.88654,3.65617 -9.53667,6.81519 -14.57435,8.1486 -3.78367,1.00149 -11.84455,1.25604 -15.4609,0.48824 z m 32.4269,-28.20356 c 2.35651,-1.381 3.12701,-2.48485 4.12089,-5.90368 0.93351,-3.21114 0.68396,-7.58434 -0.55405,-9.70955 -0.47322,-0.81236 -1.75759,-1.98117 -2.85414,-2.59737 -1.72279,-0.9681 -2.55084,-1.12035 -6.09339,-1.12035 -3.87722,0 -4.20547,0.076 -6.04991,1.4009 -4.04201,2.90343 -5.80056,8.23802 -4.32502,13.12001 1.59508,5.27753 10.38099,7.95978 15.75562,4.81004 z"
     id="path628"
     transform="scale(0.75)" />
  <path
     style="fill:#ffffff;stroke-width:0.448142"
     d="m 113.604,251.75972 c -5.23404,-1.84045 -13.836531,-8.48343 -17.06796,-13.18015 -3.467197,-5.0394 -5.023544,-13.65244 -4.065746,-22.5004 0.658125,-6.07964 2.040435,-9.04096 6.398545,-13.70758 6.114901,-6.54778 12.134201,-10.66767 17.424011,-11.92582 2.9036,-0.69061 14.22965,-0.6871 17.92568,0.006 7.63574,1.43096 14.51093,7.87417 19.26744,18.05685 4.51474,9.66509 4.62709,17.78664 0.36407,26.31824 -2.70236,5.40824 -7.9688,10.65495 -13.59892,13.54795 -6.14509,3.15762 -9.55551,3.99228 -17.23614,4.21836 -5.9069,0.17387 -6.76306,0.0981 -9.41098,-0.833 z m 34.35018,-29.08824 c 3.40215,-1.75081 3.97512,-2.88571 3.91336,-7.75144 -0.0634,-4.99301 -0.71333,-7.31694 -2.10165,-7.51451 -0.62634,-0.0891 -1.03521,-0.50954 -1.1274,-1.15922 -0.66229,-4.66715 -13.55643,-2.69803 -15.99592,2.4428 -1.12791,2.37689 -0.8034,9.90312 0.50245,11.65316 1.08489,1.45394 3.21423,2.80056 5.25926,3.32603 2.56448,0.65894 7.29116,0.16557 9.5499,-0.99682 z"
     id="path667"
     transform="scale(0.75)" />
  <path
     style="fill:#ffffff;stroke-width:0.448142"
     d="m 184.61228,274.99776 c -2.75061,-1.23994 -5.70547,-6.11896 -7.15628,-11.81635 -0.96324,-3.78272 -0.99667,-6.04562 -0.10932,-7.39989 0.86691,-1.32307 6.08723,-4.92344 6.79609,-4.68715 0.26724,0.0891 1.62991,2.32276 3.02817,4.96374 3.01263,5.69017 4.77763,8.15706 5.39467,7.54001 0.27901,-0.27901 -0.37778,-2.07137 -1.84429,-5.03296 -3.47073,-7.00913 -3.01352,-9.06729 2.22449,-10.0137 1.27952,-0.23118 1.89077,-0.0649 3.13699,0.85358 4.40716,3.24798 9.55462,13.0747 8.67812,16.56693 -0.42085,1.6768 -2.63279,2.90951 -5.22441,2.91155 -1.81864,0.001 -2.38943,-0.23507 -3.93308,-1.62967 -0.99314,-0.89724 -1.90747,-1.52958 -2.03185,-1.4052 -0.12438,0.12438 -0.33731,1.31223 -0.47318,2.63967 -0.13587,1.32743 -0.45873,2.97332 -0.71748,3.65753 -0.98112,2.59441 -5.03694,4.08333 -7.76864,2.85191 z"
     id="path706"
     transform="scale(0.75)" />
  <path
     style="fill:#ffffff;stroke-width:0.448142"
     d="m 146.07277,215.36228 c -0.97905,-1.49422 -0.21558,-2.94297 1.55091,-2.94297 2.46304,0 2.7959,2.34958 0.50644,3.57486 -1.174,0.62831 -1.24616,0.60615 -2.05735,-0.63189 z"
     id="path745"
     transform="scale(0.75)" />
  <path
     style="fill:#ffffff;stroke-width:0.448142"
     d="m 225.07932,177.87648 c -1.06815,-0.62214 -0.98506,-1.5652 0.21175,-2.40348 1.29342,-0.90594 1.817,-0.87958 3.09577,0.15591 1.0388,0.84117 1.04176,0.86715 0.20426,1.79257 -0.91568,1.01182 -2.25734,1.18564 -3.51178,0.455 z"
     id="path784"
     transform="scale(0.75)" />
</svg>
